<?xml version="1.0" standalone="no"?>
<!DOCTYPE svg PUBLIC "-//W3C//DTD SVG 1.1//EN"
  "http://www.w3.org/Graphics/SVG/1.1/DTD/svg11.dtd">
<!-- Created with matplotlib (http://matplotlib.sourceforge.net/) -->
<svg width="576pt" height="432pt" viewBox="0 0 576 432"
   xmlns="http://www.w3.org/2000/svg"
   xmlns:xlink="http://www.w3.org/1999/xlink"
   version="1.1"
   id="svg1">
<g id="figure1">
<g id="patch1">
<path style="fill: #ffffff; stroke: #ffffff; stroke-width: 1.000000; stroke-linejoin: round; stroke-linecap: square;  opacity: 1.000000"  d="M0.000000 432.000000L576.000000 432.000000L576.000000 0.000000
L0.000000 0.000000L0.000000 432.000000"/>
</g>
<g id="axes1">
<g id="patch2">
<path style="fill: #ffffff; opacity: 1.000000"  d="M72.000000 388.800000L518.400000 388.800000L518.400000 43.200000
L72.000000 43.200000L72.000000 388.800000"/>
</g>
<g id="patch3">
<defs>
  <clipPath id="p50431ccdcb28178602d99d9270004dde">
<rect x="72.000000" y="43.200000" width="446.400000" height="345.600000"/>
  </clipPath>
</defs><path style="fill: #32cd32; stroke: #000000; stroke-width: 1.000000; stroke-linejoin: round; stroke-linecap: square;  opacity: 0.750000" clip-path="url(#p50431ccdcb28178602d99d9270004dde)" d="M74.376938 388.800000L83.000717 388.800000L83.000717 387.417600
L74.376938 387.417600L74.376938 388.800000"/>
</g>
<g id="patch4">
<path style="fill: #32cd32; stroke: #000000; stroke-width: 1.000000; stroke-linejoin: round; stroke-linecap: square;  opacity: 0.750000" clip-path="url(#p50431ccdcb28178602d99d9270004dde)" d="M83.000717 388.800000L91.624496 388.800000L91.624496 379.123200
L83.000717 379.123200L83.000717 388.800000"/>
</g>
<g id="patch5">
<path style="fill: #32cd32; stroke: #000000; stroke-width: 1.000000; stroke-linejoin: round; stroke-linecap: square;  opacity: 0.750000" clip-path="url(#p50431ccdcb28178602d99d9270004dde)" d="M91.624496 388.800000L100.248275 388.800000L100.248275 341.798400
L91.624496 341.798400L91.624496 388.800000"/>
</g>
<g id="patch6">
<path style="fill: #32cd32; stroke: #000000; stroke-width: 1.000000; stroke-linejoin: round; stroke-linecap: square;  opacity: 0.750000" clip-path="url(#p50431ccdcb28178602d99d9270004dde)" d="M100.248275 388.800000L108.872054 388.800000L108.872054 253.324800
L100.248275 253.324800L100.248275 388.800000"/>
</g>
<g id="patch7">
<path style="fill: #32cd32; stroke: #000000; stroke-width: 1.000000; stroke-linejoin: round; stroke-linecap: square;  opacity: 0.750000" clip-path="url(#p50431ccdcb28178602d99d9270004dde)" d="M108.872054 388.800000L117.495832 388.800000L117.495832 145.497600
L108.872054 145.497600L108.872054 388.800000"/>
</g>
<g id="patch8">
<path style="fill: #32cd32; stroke: #000000; stroke-width: 1.000000; stroke-linejoin: round; stroke-linecap: square;  opacity: 0.750000" clip-path="url(#p50431ccdcb28178602d99d9270004dde)" d="M117.495832 388.800000L126.119611 388.800000L126.119611 137.203200
L117.495832 137.203200L117.495832 388.800000"/>
</g>
<g id="patch9">
<path style="fill: #32cd32; stroke: #000000; stroke-width: 1.000000; stroke-linejoin: round; stroke-linecap: square;  opacity: 0.750000" clip-path="url(#p50431ccdcb28178602d99d9270004dde)" d="M126.119611 388.800000L134.743390 388.800000L134.743390 106.790400
L126.119611 106.790400L126.119611 388.800000"/>
</g>
<g id="patch10">
<path style="fill: #32cd32; stroke: #000000; stroke-width: 1.000000; stroke-linejoin: round; stroke-linecap: square;  opacity: 0.750000" clip-path="url(#p50431ccdcb28178602d99d9270004dde)" d="M134.743390 388.800000L143.367169 388.800000L143.367169 209.088000
L134.743390 209.088000L134.743390 388.800000"/>
</g>
<g id="patch11">
<path style="fill: #32cd32; stroke: #000000; stroke-width: 1.000000; stroke-linejoin: round; stroke-linecap: square;  opacity: 0.750000" clip-path="url(#p50431ccdcb28178602d99d9270004dde)" d="M143.367169 388.800000L151.990948 388.800000L151.990948 263.001600
L143.367169 263.001600L143.367169 388.800000"/>
</g>
<g id="patch12">
<path style="fill: #32cd32; stroke: #000000; stroke-width: 1.000000; stroke-linejoin: round; stroke-linecap: square;  opacity: 0.750000" clip-path="url(#p50431ccdcb28178602d99d9270004dde)" d="M151.990948 388.800000L160.614727 388.800000L160.614727 321.062400
L151.990948 321.062400L151.990948 388.800000"/>
</g>
<g id="patch13">
<path style="fill: #32cd32; stroke: #000000; stroke-width: 1.000000; stroke-linejoin: round; stroke-linecap: square;  opacity: 0.750000" clip-path="url(#p50431ccdcb28178602d99d9270004dde)" d="M160.614727 388.800000L169.238506 388.800000L169.238506 374.976000
L160.614727 374.976000L160.614727 388.800000"/>
</g>
<g id="patch14">
<path style="fill: #32cd32; stroke: #000000; stroke-width: 1.000000; stroke-linejoin: round; stroke-linecap: square;  opacity: 0.750000" clip-path="url(#p50431ccdcb28178602d99d9270004dde)" d="M169.238506 388.800000L177.862285 388.800000L177.862285 386.035200
L169.238506 386.035200L169.238506 388.800000"/>
</g>
<g id="patch15">
<path style="fill: #32cd32; stroke: #000000; stroke-width: 1.000000; stroke-linejoin: round; stroke-linecap: square;  opacity: 0.750000" clip-path="url(#p50431ccdcb28178602d99d9270004dde)" d="M177.862285 388.800000L186.486064 388.800000L186.486064 384.652800
L177.862285 384.652800L177.862285 388.800000"/>
</g>
<g id="patch16">
<path style="fill: #32cd32; stroke: #000000; stroke-width: 1.000000; stroke-linejoin: round; stroke-linecap: square;  opacity: 0.750000" clip-path="url(#p50431ccdcb28178602d99d9270004dde)" d="M186.486064 388.800000L195.109843 388.800000L195.109843 386.035200
L186.486064 386.035200L186.486064 388.800000"/>
</g>
<g id="patch17">
<path style="fill: #32cd32; stroke: #000000; stroke-width: 1.000000; stroke-linejoin: round; stroke-linecap: square;  opacity: 0.750000" clip-path="url(#p50431ccdcb28178602d99d9270004dde)" d="M195.109843 388.800000L203.733622 388.800000L203.733622 384.652800
L195.109843 384.652800L195.109843 388.800000"/>
</g>
<g id="patch18">
<path style="fill: #32cd32; stroke: #000000; stroke-width: 1.000000; stroke-linejoin: round; stroke-linecap: square;  opacity: 0.750000" clip-path="url(#p50431ccdcb28178602d99d9270004dde)" d="M203.733622 388.800000L212.357401 388.800000L212.357401 386.035200
L203.733622 386.035200L203.733622 388.800000"/>
</g>
<g id="patch19">
<path style="fill: #32cd32; stroke: #000000; stroke-width: 1.000000; stroke-linejoin: round; stroke-linecap: square;  opacity: 0.750000" clip-path="url(#p50431ccdcb28178602d99d9270004dde)" d="M212.357401 388.800000L220.981179 388.800000L220.981179 388.800000
L212.357401 388.800000L212.357401 388.800000"/>
</g>
<g id="patch20">
<path style="fill: #32cd32; stroke: #000000; stroke-width: 1.000000; stroke-linejoin: round; stroke-linecap: square;  opacity: 0.750000" clip-path="url(#p50431ccdcb28178602d99d9270004dde)" d="M220.981179 388.800000L229.604958 388.800000L229.604958 388.800000
L220.981179 388.800000L220.981179 388.800000"/>
</g>
<g id="patch21">
<path style="fill: #32cd32; stroke: #000000; stroke-width: 1.000000; stroke-linejoin: round; stroke-linecap: square;  opacity: 0.750000" clip-path="url(#p50431ccdcb28178602d99d9270004dde)" d="M229.604958 388.800000L238.228737 388.800000L238.228737 386.035200
L229.604958 386.035200L229.604958 388.800000"/>
</g>
<g id="patch22">
<path style="fill: #32cd32; stroke: #000000; stroke-width: 1.000000; stroke-linejoin: round; stroke-linecap: square;  opacity: 0.750000" clip-path="url(#p50431ccdcb28178602d99d9270004dde)" d="M238.228737 388.800000L246.852516 388.800000L246.852516 386.035200
L238.228737 386.035200L238.228737 388.800000"/>
</g>
<g id="patch23">
<path style="fill: #32cd32; stroke: #000000; stroke-width: 1.000000; stroke-linejoin: round; stroke-linecap: square;  opacity: 0.750000" clip-path="url(#p50431ccdcb28178602d99d9270004dde)" d="M246.852516 388.800000L255.476295 388.800000L255.476295 388.800000
L246.852516 388.800000L246.852516 388.800000"/>
</g>
<g id="patch24">
<path style="fill: #32cd32; stroke: #000000; stroke-width: 1.000000; stroke-linejoin: round; stroke-linecap: square;  opacity: 0.750000" clip-path="url(#p50431ccdcb28178602d99d9270004dde)" d="M255.476295 388.800000L264.100074 388.800000L264.100074 387.417600
L255.476295 387.417600L255.476295 388.800000"/>
</g>
<g id="patch25">
<path style="fill: #32cd32; stroke: #000000; stroke-width: 1.000000; stroke-linejoin: round; stroke-linecap: square;  opacity: 0.750000" clip-path="url(#p50431ccdcb28178602d99d9270004dde)" d="M264.100074 388.800000L272.723853 388.800000L272.723853 388.800000
L264.100074 388.800000L264.100074 388.800000"/>
</g>
<g id="patch26">
<path style="fill: #32cd32; stroke: #000000; stroke-width: 1.000000; stroke-linejoin: round; stroke-linecap: square;  opacity: 0.750000" clip-path="url(#p50431ccdcb28178602d99d9270004dde)" d="M272.723853 388.800000L281.347632 388.800000L281.347632 388.800000
L272.723853 388.800000L272.723853 388.800000"/>
</g>
<g id="patch27">
<path style="fill: #32cd32; stroke: #000000; stroke-width: 1.000000; stroke-linejoin: round; stroke-linecap: square;  opacity: 0.750000" clip-path="url(#p50431ccdcb28178602d99d9270004dde)" d="M281.347632 388.800000L289.971411 388.800000L289.971411 388.800000
L281.347632 388.800000L281.347632 388.800000"/>
</g>
<g id="patch28">
<path style="fill: #32cd32; stroke: #000000; stroke-width: 1.000000; stroke-linejoin: round; stroke-linecap: square;  opacity: 0.750000" clip-path="url(#p50431ccdcb28178602d99d9270004dde)" d="M289.971411 388.800000L298.595190 388.800000L298.595190 388.800000
L289.971411 388.800000L289.971411 388.800000"/>
</g>
<g id="patch29">
<path style="fill: #32cd32; stroke: #000000; stroke-width: 1.000000; stroke-linejoin: round; stroke-linecap: square;  opacity: 0.750000" clip-path="url(#p50431ccdcb28178602d99d9270004dde)" d="M298.595190 388.800000L307.218969 388.800000L307.218969 388.800000
L298.595190 388.800000L298.595190 388.800000"/>
</g>
<g id="patch30">
<path style="fill: #32cd32; stroke: #000000; stroke-width: 1.000000; stroke-linejoin: round; stroke-linecap: square;  opacity: 0.750000" clip-path="url(#p50431ccdcb28178602d99d9270004dde)" d="M307.218969 388.800000L315.842747 388.800000L315.842747 388.800000
L307.218969 388.800000L307.218969 388.800000"/>
</g>
<g id="patch31">
<path style="fill: #32cd32; stroke: #000000; stroke-width: 1.000000; stroke-linejoin: round; stroke-linecap: square;  opacity: 0.750000" clip-path="url(#p50431ccdcb28178602d99d9270004dde)" d="M315.842747 388.800000L324.466526 388.800000L324.466526 388.800000
L315.842747 388.800000L315.842747 388.800000"/>
</g>
<g id="patch32">
<path style="fill: #32cd32; stroke: #000000; stroke-width: 1.000000; stroke-linejoin: round; stroke-linecap: square;  opacity: 0.750000" clip-path="url(#p50431ccdcb28178602d99d9270004dde)" d="M324.466526 388.800000L333.090305 388.800000L333.090305 388.800000
L324.466526 388.800000L324.466526 388.800000"/>
</g>
<g id="patch33">
<path style="fill: #32cd32; stroke: #000000; stroke-width: 1.000000; stroke-linejoin: round; stroke-linecap: square;  opacity: 0.750000" clip-path="url(#p50431ccdcb28178602d99d9270004dde)" d="M333.090305 388.800000L341.714084 388.800000L341.714084 388.800000
L333.090305 388.800000L333.090305 388.800000"/>
</g>
<g id="patch34">
<path style="fill: #32cd32; stroke: #000000; stroke-width: 1.000000; stroke-linejoin: round; stroke-linecap: square;  opacity: 0.750000" clip-path="url(#p50431ccdcb28178602d99d9270004dde)" d="M341.714084 388.800000L350.337863 388.800000L350.337863 388.800000
L341.714084 388.800000L341.714084 388.800000"/>
</g>
<g id="patch35">
<path style="fill: #32cd32; stroke: #000000; stroke-width: 1.000000; stroke-linejoin: round; stroke-linecap: square;  opacity: 0.750000" clip-path="url(#p50431ccdcb28178602d99d9270004dde)" d="M350.337863 388.800000L358.961642 388.800000L358.961642 388.800000
L350.337863 388.800000L350.337863 388.800000"/>
</g>
<g id="patch36">
<path style="fill: #32cd32; stroke: #000000; stroke-width: 1.000000; stroke-linejoin: round; stroke-linecap: square;  opacity: 0.750000" clip-path="url(#p50431ccdcb28178602d99d9270004dde)" d="M358.961642 388.800000L367.585421 388.800000L367.585421 388.800000
L358.961642 388.800000L358.961642 388.800000"/>
</g>
<g id="patch37">
<path style="fill: #32cd32; stroke: #000000; stroke-width: 1.000000; stroke-linejoin: round; stroke-linecap: square;  opacity: 0.750000" clip-path="url(#p50431ccdcb28178602d99d9270004dde)" d="M367.585421 388.800000L376.209200 388.800000L376.209200 388.800000
L367.585421 388.800000L367.585421 388.800000"/>
</g>
<g id="patch38">
<path style="fill: #32cd32; stroke: #000000; stroke-width: 1.000000; stroke-linejoin: round; stroke-linecap: square;  opacity: 0.750000" clip-path="url(#p50431ccdcb28178602d99d9270004dde)" d="M376.209200 388.800000L384.832979 388.800000L384.832979 388.800000
L376.209200 388.800000L376.209200 388.800000"/>
</g>
<g id="patch39">
<path style="fill: #32cd32; stroke: #000000; stroke-width: 1.000000; stroke-linejoin: round; stroke-linecap: square;  opacity: 0.750000" clip-path="url(#p50431ccdcb28178602d99d9270004dde)" d="M384.832979 388.800000L393.456758 388.800000L393.456758 388.800000
L384.832979 388.800000L384.832979 388.800000"/>
</g>
<g id="patch40">
<path style="fill: #32cd32; stroke: #000000; stroke-width: 1.000000; stroke-linejoin: round; stroke-linecap: square;  opacity: 0.750000" clip-path="url(#p50431ccdcb28178602d99d9270004dde)" d="M393.456758 388.800000L402.080537 388.800000L402.080537 388.800000
L393.456758 388.800000L393.456758 388.800000"/>
</g>
<g id="patch41">
<path style="fill: #32cd32; stroke: #000000; stroke-width: 1.000000; stroke-linejoin: round; stroke-linecap: square;  opacity: 0.750000" clip-path="url(#p50431ccdcb28178602d99d9270004dde)" d="M402.080537 388.800000L410.704316 388.800000L410.704316 388.800000
L402.080537 388.800000L402.080537 388.800000"/>
</g>
<g id="patch42">
<path style="fill: #32cd32; stroke: #000000; stroke-width: 1.000000; stroke-linejoin: round; stroke-linecap: square;  opacity: 0.750000" clip-path="url(#p50431ccdcb28178602d99d9270004dde)" d="M410.704316 388.800000L419.328094 388.800000L419.328094 388.800000
L410.704316 388.800000L410.704316 388.800000"/>
</g>
<g id="patch43">
<path style="fill: #32cd32; stroke: #000000; stroke-width: 1.000000; stroke-linejoin: round; stroke-linecap: square;  opacity: 0.750000" clip-path="url(#p50431ccdcb28178602d99d9270004dde)" d="M419.328094 388.800000L427.951873 388.800000L427.951873 388.800000
L419.328094 388.800000L419.328094 388.800000"/>
</g>
<g id="patch44">
<path style="fill: #32cd32; stroke: #000000; stroke-width: 1.000000; stroke-linejoin: round; stroke-linecap: square;  opacity: 0.750000" clip-path="url(#p50431ccdcb28178602d99d9270004dde)" d="M427.951873 388.800000L436.575652 388.800000L436.575652 388.800000
L427.951873 388.800000L427.951873 388.800000"/>
</g>
<g id="patch45">
<path style="fill: #32cd32; stroke: #000000; stroke-width: 1.000000; stroke-linejoin: round; stroke-linecap: square;  opacity: 0.750000" clip-path="url(#p50431ccdcb28178602d99d9270004dde)" d="M436.575652 388.800000L445.199431 388.800000L445.199431 388.800000
L436.575652 388.800000L436.575652 388.800000"/>
</g>
<g id="patch46">
<path style="fill: #32cd32; stroke: #000000; stroke-width: 1.000000; stroke-linejoin: round; stroke-linecap: square;  opacity: 0.750000" clip-path="url(#p50431ccdcb28178602d99d9270004dde)" d="M445.199431 388.800000L453.823210 388.800000L453.823210 388.800000
L445.199431 388.800000L445.199431 388.800000"/>
</g>
<g id="patch47">
<path style="fill: #32cd32; stroke: #000000; stroke-width: 1.000000; stroke-linejoin: round; stroke-linecap: square;  opacity: 0.750000" clip-path="url(#p50431ccdcb28178602d99d9270004dde)" d="M453.823210 388.800000L462.446989 388.800000L462.446989 388.800000
L453.823210 388.800000L453.823210 388.800000"/>
</g>
<g id="patch48">
<path style="fill: #32cd32; stroke: #000000; stroke-width: 1.000000; stroke-linejoin: round; stroke-linecap: square;  opacity: 0.750000" clip-path="url(#p50431ccdcb28178602d99d9270004dde)" d="M462.446989 388.800000L471.070768 388.800000L471.070768 388.800000
L462.446989 388.800000L462.446989 388.800000"/>
</g>
<g id="patch49">
<path style="fill: #32cd32; stroke: #000000; stroke-width: 1.000000; stroke-linejoin: round; stroke-linecap: square;  opacity: 0.750000" clip-path="url(#p50431ccdcb28178602d99d9270004dde)" d="M471.070768 388.800000L479.694547 388.800000L479.694547 388.800000
L471.070768 388.800000L471.070768 388.800000"/>
</g>
<g id="patch50">
<path style="fill: #32cd32; stroke: #000000; stroke-width: 1.000000; stroke-linejoin: round; stroke-linecap: square;  opacity: 0.750000" clip-path="url(#p50431ccdcb28178602d99d9270004dde)" d="M479.694547 388.800000L488.318326 388.800000L488.318326 388.800000
L479.694547 388.800000L479.694547 388.800000"/>
</g>
<g id="patch51">
<path style="fill: #32cd32; stroke: #000000; stroke-width: 1.000000; stroke-linejoin: round; stroke-linecap: square;  opacity: 0.750000" clip-path="url(#p50431ccdcb28178602d99d9270004dde)" d="M488.318326 388.800000L496.942105 388.800000L496.942105 388.800000
L488.318326 388.800000L488.318326 388.800000"/>
</g>
<g id="patch52">
<path style="fill: #32cd32; stroke: #000000; stroke-width: 1.000000; stroke-linejoin: round; stroke-linecap: square;  opacity: 0.750000" clip-path="url(#p50431ccdcb28178602d99d9270004dde)" d="M496.942105 388.800000L505.565884 388.800000L505.565884 387.417600
L496.942105 387.417600L496.942105 388.800000"/>
</g>
<g id="matplotlib.axis1">
<g id="xtick1">
<g id="line2d1">
<path style="fill: none; stroke: #000000; stroke-width: 0.500000; stroke-linejoin: round; stroke-linecap: butt; stroke-dasharray: 1.000000,3.000000; stroke-dashoffset: 0.000000; opacity: 1.000000" clip-path="url(#p50431ccdcb28178602d99d9270004dde)" d="M72.000000 388.800000L72.000000 43.200000"/>
</g>
<g id="line2d2">
<defs><path id="m30e32995789d870ad79a2e54c91cf9c6" d="M0.000000 0.000000L0.000000 -4.000000"/></defs>
<g ><use style="fill: none; stroke: #000000; stroke-width: 0.500000; stroke-linejoin: round; stroke-linecap: butt;  opacity: 1.000000" xlink:href="#m30e32995789d870ad79a2e54c91cf9c6" x="72.000000" y="388.800000"/>
</g></g>
<g id="line2d3">
<defs><path id="m9281cae24120827b11d5ea8a7ad3e96b" d="M0.000000 0.000000L0.000000 4.000000"/></defs>
<g ><use style="fill: none; stroke: #000000; stroke-width: 0.500000; stroke-linejoin: round; stroke-linecap: butt;  opacity: 1.000000" xlink:href="#m9281cae24120827b11d5ea8a7ad3e96b" x="72.000000" y="43.200000"/>
</g></g>
<g id="text1">
<defs>
<path id="c_7a2040fe3b94fcd41d0a72c84e93b115" d="M31.781250 -66.406250q-7.609375 0.000000 -11.453125 7.500000q-3.828125 7.484375 -3.828125 22.531250q0.000000 14.984375 3.828125 22.484375q3.843750 7.500000 11.453125 7.500000q7.671875 0.000000 11.500000 -7.500000q3.843750 -7.500000 3.843750 -22.484375q0.000000 -15.046875 -3.843750 -22.531250q-3.828125 -7.500000 -11.500000 -7.500000M31.781250 -74.218750q12.265625 0.000000 18.734375 9.703125q6.468750 9.687500 6.468750 28.140625q0.000000 18.406250 -6.468750 28.109375q-6.468750 9.687500 -18.734375 9.687500q-12.250000 0.000000 -18.718750 -9.687500q-6.468750 -9.703125 -6.468750 -28.109375q0.000000 -18.453125 6.468750 -28.140625q6.468750 -9.703125 18.718750 -9.703125"/>
<path id="c_ed3e21196fb739f392806f09ca0594ef" d="M10.687500 -12.406250l10.312500 0.000000l0.000000 12.406250l-10.312500 0.000000z"/>
</defs>
<g style="fill: #000000; opacity: 1.000000" transform="translate(59.429688,401.706250)scale(0.120000)">
<use xlink:href="#c_7a2040fe3b94fcd41d0a72c84e93b115"/>
<use xlink:href="#c_ed3e21196fb739f392806f09ca0594ef" x="63.623047"/>
<use xlink:href="#c_7a2040fe3b94fcd41d0a72c84e93b115" x="95.410156"/>
<use xlink:href="#c_7a2040fe3b94fcd41d0a72c84e93b115" x="159.033203"/>
</g>
</g>
</g>
<g id="xtick2">
<g id="line2d4">
<path style="fill: none; stroke: #000000; stroke-width: 0.500000; stroke-linejoin: round; stroke-linecap: butt; stroke-dasharray: 1.000000,3.000000; stroke-dashoffset: 0.000000; opacity: 1.000000" clip-path="url(#p50431ccdcb28178602d99d9270004dde)" d="M146.400000 388.800000L146.400000 43.200000"/>
</g>
<g id="line2d5">
<g ><use style="fill: none; stroke: #000000; stroke-width: 0.500000; stroke-linejoin: round; stroke-linecap: butt;  opacity: 1.000000" xlink:href="#m30e32995789d870ad79a2e54c91cf9c6" x="146.400000" y="388.800000"/>
</g></g>
<g id="line2d6">
<g ><use style="fill: none; stroke: #000000; stroke-width: 0.500000; stroke-linejoin: round; stroke-linecap: butt;  opacity: 1.000000" xlink:href="#m9281cae24120827b11d5ea8a7ad3e96b" x="146.400000" y="43.200000"/>
</g></g>
<g id="text2">
<defs>
<path id="c_ed3f3ed3ebfbd18bcb9c012009a68ad1" d="M19.187500 -8.296875l34.421875 0.000000l0.000000 8.296875l-46.281250 0.000000l0.000000 -8.296875q5.609375 -5.812500 15.296875 -15.593750q9.703125 -9.796875 12.187500 -12.640625q4.734375 -5.312500 6.609375 -9.000000q1.890625 -3.687500 1.890625 -7.250000q0.000000 -5.812500 -4.078125 -9.468750q-4.078125 -3.671875 -10.625000 -3.671875q-4.640625 0.000000 -9.796875 1.609375q-5.140625 1.609375 -11.000000 4.890625l0.000000 -9.968750q5.953125 -2.390625 11.125000 -3.609375q5.187500 -1.218750 9.484375 -1.218750q11.328125 0.000000 18.062500 5.671875q6.734375 5.656250 6.734375 15.125000q0.000000 4.500000 -1.687500 8.531250q-1.671875 4.015625 -6.125000 9.484375q-1.218750 1.421875 -7.765625 8.187500q-6.531250 6.765625 -18.453125 18.921875"/>
</defs>
<g style="fill: #000000; opacity: 1.000000" transform="translate(134.032813,401.706250)scale(0.120000)">
<use xlink:href="#c_7a2040fe3b94fcd41d0a72c84e93b115"/>
<use xlink:href="#c_ed3e21196fb739f392806f09ca0594ef" x="63.623047"/>
<use xlink:href="#c_7a2040fe3b94fcd41d0a72c84e93b115" x="95.410156"/>
<use xlink:href="#c_ed3f3ed3ebfbd18bcb9c012009a68ad1" x="159.033203"/>
</g>
</g>
</g>
<g id="xtick3">
<g id="line2d7">
<path style="fill: none; stroke: #000000; stroke-width: 0.500000; stroke-linejoin: round; stroke-linecap: butt; stroke-dasharray: 1.000000,3.000000; stroke-dashoffset: 0.000000; opacity: 1.000000" clip-path="url(#p50431ccdcb28178602d99d9270004dde)" d="M220.800000 388.800000L220.800000 43.200000"/>
</g>
<g id="line2d8">
<g ><use style="fill: none; stroke: #000000; stroke-width: 0.500000; stroke-linejoin: round; stroke-linecap: butt;  opacity: 1.000000" xlink:href="#m30e32995789d870ad79a2e54c91cf9c6" x="220.800000" y="388.800000"/>
</g></g>
<g id="line2d9">
<g ><use style="fill: none; stroke: #000000; stroke-width: 0.500000; stroke-linejoin: round; stroke-linecap: butt;  opacity: 1.000000" xlink:href="#m9281cae24120827b11d5ea8a7ad3e96b" x="220.800000" y="43.200000"/>
</g></g>
<g id="text3">
<defs>
<path id="c_a0416418d96557a09b8c1332d34883ba" d="M37.796875 -64.312500l-24.906250 38.921875l24.906250 0.000000zM35.203125 -72.906250l12.406250 0.000000l0.000000 47.515625l10.406250 0.000000l0.000000 8.203125l-10.406250 0.000000l0.000000 17.187500l-9.812500 0.000000l0.000000 -17.187500l-32.906250 0.000000l0.000000 -9.515625z"/>
</defs>
<g style="fill: #000000; opacity: 1.000000" transform="translate(208.167188,401.706250)scale(0.120000)">
<use xlink:href="#c_7a2040fe3b94fcd41d0a72c84e93b115"/>
<use xlink:href="#c_ed3e21196fb739f392806f09ca0594ef" x="63.623047"/>
<use xlink:href="#c_7a2040fe3b94fcd41d0a72c84e93b115" x="95.410156"/>
<use xlink:href="#c_a0416418d96557a09b8c1332d34883ba" x="159.033203"/>
</g>
</g>
</g>
<g id="xtick4">
<g id="line2d10">
<path style="fill: none; stroke: #000000; stroke-width: 0.500000; stroke-linejoin: round; stroke-linecap: butt; stroke-dasharray: 1.000000,3.000000; stroke-dashoffset: 0.000000; opacity: 1.000000" clip-path="url(#p50431ccdcb28178602d99d9270004dde)" d="M295.200000 388.800000L295.200000 43.200000"/>
</g>
<g id="line2d11">
<g ><use style="fill: none; stroke: #000000; stroke-width: 0.500000; stroke-linejoin: round; stroke-linecap: butt;  opacity: 1.000000" xlink:href="#m30e32995789d870ad79a2e54c91cf9c6" x="295.200000" y="388.800000"/>
</g></g>
<g id="line2d12">
<g ><use style="fill: none; stroke: #000000; stroke-width: 0.500000; stroke-linejoin: round; stroke-linecap: butt;  opacity: 1.000000" xlink:href="#m9281cae24120827b11d5ea8a7ad3e96b" x="295.200000" y="43.200000"/>
</g></g>
<g id="text4">
<defs>
<path id="c_cc8d6d580d1b10c8632f7a42cd53db8a" d="M33.015625 -40.375000q-6.640625 0.000000 -10.531250 4.546875q-3.875000 4.531250 -3.875000 12.437500q0.000000 7.859375 3.875000 12.437500q3.890625 4.562500 10.531250 4.562500q6.640625 0.000000 10.515625 -4.562500q3.875000 -4.578125 3.875000 -12.437500q0.000000 -7.906250 -3.875000 -12.437500q-3.875000 -4.546875 -10.515625 -4.546875M52.593750 -71.296875l0.000000 8.984375q-3.718750 -1.750000 -7.500000 -2.671875q-3.781250 -0.937500 -7.500000 -0.937500q-9.765625 0.000000 -14.921875 6.593750q-5.140625 6.593750 -5.875000 19.921875q2.875000 -4.250000 7.218750 -6.515625q4.359375 -2.265625 9.578125 -2.265625q10.984375 0.000000 17.359375 6.671875q6.375000 6.656250 6.375000 18.125000q0.000000 11.234375 -6.640625 18.031250q-6.640625 6.781250 -17.671875 6.781250q-12.656250 0.000000 -19.343750 -9.687500q-6.687500 -9.703125 -6.687500 -28.109375q0.000000 -17.281250 8.203125 -27.562500q8.203125 -10.281250 22.015625 -10.281250q3.718750 0.000000 7.500000 0.734375q3.781250 0.734375 7.890625 2.187500"/>
</defs>
<g style="fill: #000000; opacity: 1.000000" transform="translate(282.614062,401.706250)scale(0.120000)">
<use xlink:href="#c_7a2040fe3b94fcd41d0a72c84e93b115"/>
<use xlink:href="#c_ed3e21196fb739f392806f09ca0594ef" x="63.623047"/>
<use xlink:href="#c_7a2040fe3b94fcd41d0a72c84e93b115" x="95.410156"/>
<use xlink:href="#c_cc8d6d580d1b10c8632f7a42cd53db8a" x="159.033203"/>
</g>
</g>
</g>
<g id="xtick5">
<g id="line2d13">
<path style="fill: none; stroke: #000000; stroke-width: 0.500000; stroke-linejoin: round; stroke-linecap: butt; stroke-dasharray: 1.000000,3.000000; stroke-dashoffset: 0.000000; opacity: 1.000000" clip-path="url(#p50431ccdcb28178602d99d9270004dde)" d="M369.600000 388.800000L369.600000 43.200000"/>
</g>
<g id="line2d14">
<g ><use style="fill: none; stroke: #000000; stroke-width: 0.500000; stroke-linejoin: round; stroke-linecap: butt;  opacity: 1.000000" xlink:href="#m30e32995789d870ad79a2e54c91cf9c6" x="369.600000" y="388.800000"/>
</g></g>
<g id="line2d15">
<g ><use style="fill: none; stroke: #000000; stroke-width: 0.500000; stroke-linejoin: round; stroke-linecap: butt;  opacity: 1.000000" xlink:href="#m9281cae24120827b11d5ea8a7ad3e96b" x="369.600000" y="43.200000"/>
</g></g>
<g id="text5">
<defs>
<path id="c_bef35738d52871942e50b9de9b122bab" d="M31.781250 -34.625000q-7.031250 0.000000 -11.062500 3.765625q-4.015625 3.765625 -4.015625 10.343750q0.000000 6.593750 4.015625 10.359375q4.031250 3.765625 11.062500 3.765625q7.031250 0.000000 11.078125 -3.781250q4.062500 -3.796875 4.062500 -10.343750q0.000000 -6.578125 -4.031250 -10.343750q-4.015625 -3.765625 -11.109375 -3.765625M21.921875 -38.812500q-6.343750 -1.562500 -9.890625 -5.906250q-3.531250 -4.359375 -3.531250 -10.609375q0.000000 -8.734375 6.218750 -13.812500q6.234375 -5.078125 17.062500 -5.078125q10.890625 0.000000 17.093750 5.078125q6.203125 5.078125 6.203125 13.812500q0.000000 6.250000 -3.546875 10.609375q-3.531250 4.343750 -9.828125 5.906250q7.125000 1.656250 11.093750 6.500000q3.984375 4.828125 3.984375 11.796875q0.000000 10.609375 -6.468750 16.281250q-6.468750 5.656250 -18.531250 5.656250q-12.046875 0.000000 -18.531250 -5.656250q-6.468750 -5.671875 -6.468750 -16.281250q0.000000 -6.968750 4.000000 -11.796875q4.015625 -4.843750 11.140625 -6.500000M18.312500 -54.390625q0.000000 5.656250 3.531250 8.828125q3.546875 3.171875 9.937500 3.171875q6.359375 0.000000 9.937500 -3.171875q3.593750 -3.171875 3.593750 -8.828125q0.000000 -5.671875 -3.593750 -8.843750q-3.578125 -3.171875 -9.937500 -3.171875q-6.390625 0.000000 -9.937500 3.171875q-3.531250 3.171875 -3.531250 8.843750"/>
</defs>
<g style="fill: #000000; opacity: 1.000000" transform="translate(357.045313,401.706250)scale(0.120000)">
<use xlink:href="#c_7a2040fe3b94fcd41d0a72c84e93b115"/>
<use xlink:href="#c_ed3e21196fb739f392806f09ca0594ef" x="63.623047"/>
<use xlink:href="#c_7a2040fe3b94fcd41d0a72c84e93b115" x="95.410156"/>
<use xlink:href="#c_bef35738d52871942e50b9de9b122bab" x="159.033203"/>
</g>
</g>
</g>
<g id="xtick6">
<g id="line2d16">
<path style="fill: none; stroke: #000000; stroke-width: 0.500000; stroke-linejoin: round; stroke-linecap: butt; stroke-dasharray: 1.000000,3.000000; stroke-dashoffset: 0.000000; opacity: 1.000000" clip-path="url(#p50431ccdcb28178602d99d9270004dde)" d="M444.000000 388.800000L444.000000 43.200000"/>
</g>
<g id="line2d17">
<g ><use style="fill: none; stroke: #000000; stroke-width: 0.500000; stroke-linejoin: round; stroke-linecap: butt;  opacity: 1.000000" xlink:href="#m30e32995789d870ad79a2e54c91cf9c6" x="444.000000" y="388.800000"/>
</g></g>
<g id="line2d18">
<g ><use style="fill: none; stroke: #000000; stroke-width: 0.500000; stroke-linejoin: round; stroke-linecap: butt;  opacity: 1.000000" xlink:href="#m9281cae24120827b11d5ea8a7ad3e96b" x="444.000000" y="43.200000"/>
</g></g>
<g id="text6">
<defs>
<path id="c_42baa63129a918535c52adb20d687ea7" d="M12.406250 -8.296875l16.109375 0.000000l0.000000 -55.625000l-17.531250 3.515625l0.000000 -8.984375l17.437500 -3.515625l9.859375 0.000000l0.000000 64.609375l16.109375 0.000000l0.000000 8.296875l-41.984375 0.000000z"/>
</defs>
<g style="fill: #000000; opacity: 1.000000" transform="translate(431.429688,401.706250)scale(0.120000)">
<use xlink:href="#c_7a2040fe3b94fcd41d0a72c84e93b115"/>
<use xlink:href="#c_ed3e21196fb739f392806f09ca0594ef" x="63.623047"/>
<use xlink:href="#c_42baa63129a918535c52adb20d687ea7" x="95.410156"/>
<use xlink:href="#c_7a2040fe3b94fcd41d0a72c84e93b115" x="159.033203"/>
</g>
</g>
</g>
<g id="xtick7">
<g id="line2d19">
<path style="fill: none; stroke: #000000; stroke-width: 0.500000; stroke-linejoin: round; stroke-linecap: butt; stroke-dasharray: 1.000000,3.000000; stroke-dashoffset: 0.000000; opacity: 1.000000" clip-path="url(#p50431ccdcb28178602d99d9270004dde)" d="M518.400000 388.800000L518.400000 43.200000"/>
</g>
<g id="line2d20">
<g ><use style="fill: none; stroke: #000000; stroke-width: 0.500000; stroke-linejoin: round; stroke-linecap: butt;  opacity: 1.000000" xlink:href="#m30e32995789d870ad79a2e54c91cf9c6" x="518.400000" y="388.800000"/>
</g></g>
<g id="line2d21">
<g ><use style="fill: none; stroke: #000000; stroke-width: 0.500000; stroke-linejoin: round; stroke-linecap: butt;  opacity: 1.000000" xlink:href="#m9281cae24120827b11d5ea8a7ad3e96b" x="518.400000" y="43.200000"/>
</g></g>
<g id="text7">
<g style="fill: #000000; opacity: 1.000000" transform="translate(506.032812,401.706250)scale(0.120000)">
<use xlink:href="#c_7a2040fe3b94fcd41d0a72c84e93b115"/>
<use xlink:href="#c_ed3e21196fb739f392806f09ca0594ef" x="63.623047"/>
<use xlink:href="#c_42baa63129a918535c52adb20d687ea7" x="95.410156"/>
<use xlink:href="#c_ed3f3ed3ebfbd18bcb9c012009a68ad1" x="159.033203"/>
</g>
</g>
</g>
<g id="text8">
<defs>
<path id="c_46f5d86430594d4affc2299f73adabe3" d="M39.406250 -66.218750q-10.750000 0.000000 -17.078125 8.015625q-6.312500 8.000000 -6.312500 21.828125q0.000000 13.765625 6.312500 21.781250q6.328125 8.000000 17.078125 8.000000q10.734375 0.000000 17.015625 -8.000000q6.281250 -8.015625 6.281250 -21.781250q0.000000 -13.828125 -6.281250 -21.828125q-6.281250 -8.015625 -17.015625 -8.015625M53.218750 -1.312500l13.000000 14.203125l-11.921875 0.000000l-10.796875 -11.671875q-1.609375 0.093750 -2.468750 0.140625q-0.843750 0.062500 -1.625000 0.062500q-15.375000 0.000000 -24.593750 -10.281250q-9.203125 -10.281250 -9.203125 -27.515625q0.000000 -17.281250 9.203125 -27.562500q9.218750 -10.281250 24.593750 -10.281250q15.328125 0.000000 24.500000 10.281250q9.187500 10.281250 9.187500 27.562500q0.000000 12.687500 -5.109375 21.734375q-5.093750 9.031250 -14.765625 13.328125"/>
<path id="c_c438d87e693443c2861ebd6359e6491e" d="M8.500000 -21.578125l0.000000 -33.109375l8.984375 0.000000l0.000000 32.765625q0.000000 7.765625 3.015625 11.656250q3.031250 3.875000 9.093750 3.875000q7.265625 0.000000 11.484375 -4.640625q4.234375 -4.640625 4.234375 -12.656250l0.000000 -31.000000l8.984375 0.000000l0.000000 54.687500l-8.984375 0.000000l0.000000 -8.406250q-3.265625 4.984375 -7.593750 7.406250q-4.312500 2.421875 -10.031250 2.421875q-9.421875 0.000000 -14.312500 -5.859375q-4.875000 -5.859375 -4.875000 -17.140625"/>
<path id="c_0bce5afba2dc6b9024b26277c38ad8e8" d="M56.203125 -29.593750l0.000000 4.390625l-41.312500 0.000000q0.593750 9.281250 5.593750 14.140625q5.000000 4.859375 13.937500 4.859375q5.171875 0.000000 10.031250 -1.265625q4.859375 -1.265625 9.656250 -3.812500l0.000000 8.500000q-4.843750 2.046875 -9.921875 3.125000q-5.078125 1.078125 -10.296875 1.078125q-13.093750 0.000000 -20.734375 -7.609375q-7.640625 -7.625000 -7.640625 -20.625000q0.000000 -13.421875 7.250000 -21.296875q7.250000 -7.890625 19.562500 -7.890625q11.031250 0.000000 17.453125 7.109375q6.421875 7.093750 6.421875 19.296875M47.218750 -32.234375q-0.093750 -7.359375 -4.125000 -11.750000q-4.031250 -4.406250 -10.671875 -4.406250q-7.515625 0.000000 -12.031250 4.250000q-4.515625 4.250000 -5.203125 11.968750z"/>
<path id="c_6ec8d5749226675394676a5d2a3b468b" d="M41.109375 -46.296875q-1.515625 -0.875000 -3.296875 -1.281250q-1.781250 -0.421875 -3.921875 -0.421875q-7.625000 0.000000 -11.703125 4.953125q-4.078125 4.953125 -4.078125 14.234375l0.000000 28.812500l-9.031250 0.000000l0.000000 -54.687500l9.031250 0.000000l0.000000 8.500000q2.843750 -4.984375 7.375000 -7.390625q4.546875 -2.421875 11.046875 -2.421875q0.921875 0.000000 2.046875 0.125000q1.125000 0.109375 2.484375 0.359375z"/>
<path id="c_3fe22c4af425ac970aec982ae9662abe" d="M32.171875 5.078125q-3.796875 9.765625 -7.421875 12.734375q-3.609375 2.984375 -9.656250 2.984375l-7.187500 0.000000l0.000000 -7.515625l5.281250 0.000000q3.703125 0.000000 5.750000 -1.765625q2.062500 -1.750000 4.546875 -8.296875l1.609375 -4.093750l-22.109375 -53.812500l9.515625 0.000000l17.093750 42.765625l17.093750 -42.765625l9.515625 0.000000z"/>
<path id="c_d41d8cd98f00b204e9800998ecf8427e" d=""/>
<path id="c_9e4b30cbdf32072672ded72e9074c4c9" d="M-0.296875 -72.906250l61.671875 0.000000l0.000000 8.312500l-25.875000 0.000000l0.000000 64.593750l-9.906250 0.000000l0.000000 -64.593750l-25.890625 0.000000z"/>
<path id="c_6a63bda47b2f3da1cec6aadd80692cfe" d="M9.421875 -54.687500l8.984375 0.000000l0.000000 54.687500l-8.984375 0.000000zM9.421875 -75.984375l8.984375 0.000000l0.000000 11.390625l-8.984375 0.000000z"/>
<path id="c_4653c6dfde66c7610eae0911760d3490" d="M52.000000 -44.187500q3.375000 -6.062500 8.062500 -8.937500q4.687500 -2.875000 11.031250 -2.875000q8.546875 0.000000 13.187500 5.984375q4.640625 5.968750 4.640625 17.000000l0.000000 33.015625l-9.031250 0.000000l0.000000 -32.718750q0.000000 -7.859375 -2.796875 -11.656250q-2.781250 -3.812500 -8.484375 -3.812500q-6.984375 0.000000 -11.046875 4.640625q-4.046875 4.625000 -4.046875 12.640625l0.000000 30.906250l-9.031250 0.000000l0.000000 -32.718750q0.000000 -7.906250 -2.781250 -11.687500q-2.781250 -3.781250 -8.593750 -3.781250q-6.890625 0.000000 -10.953125 4.656250q-4.046875 4.656250 -4.046875 12.625000l0.000000 30.906250l-9.031250 0.000000l0.000000 -54.687500l9.031250 0.000000l0.000000 8.500000q3.078125 -5.031250 7.375000 -7.421875q4.296875 -2.390625 10.203125 -2.390625q5.968750 0.000000 10.140625 3.031250q4.171875 3.015625 6.171875 8.781250"/>
</defs>
<g style="fill: #000000; opacity: 1.000000" transform="translate(260.684375,416.003125)scale(0.120000)">
<use xlink:href="#c_46f5d86430594d4affc2299f73adabe3"/>
<use xlink:href="#c_c438d87e693443c2861ebd6359e6491e" x="78.710938"/>
<use xlink:href="#c_0bce5afba2dc6b9024b26277c38ad8e8" x="142.089844"/>
<use xlink:href="#c_6ec8d5749226675394676a5d2a3b468b" x="203.613281"/>
<use xlink:href="#c_3fe22c4af425ac970aec982ae9662abe" x="244.726563"/>
<use xlink:href="#c_d41d8cd98f00b204e9800998ecf8427e" x="303.906250"/>
<use xlink:href="#c_9e4b30cbdf32072672ded72e9074c4c9" x="335.693359"/>
<use xlink:href="#c_6a63bda47b2f3da1cec6aadd80692cfe" x="393.652344"/>
<use xlink:href="#c_4653c6dfde66c7610eae0911760d3490" x="421.435547"/>
<use xlink:href="#c_0bce5afba2dc6b9024b26277c38ad8e8" x="518.847656"/>
</g>
</g>
</g>
<g id="matplotlib.axis2">
<g id="ytick1">
<g id="line2d22">
<path style="fill: none; stroke: #000000; stroke-width: 0.500000; stroke-linejoin: round; stroke-linecap: butt; stroke-dasharray: 1.000000,3.000000; stroke-dashoffset: 0.000000; opacity: 1.000000" clip-path="url(#p50431ccdcb28178602d99d9270004dde)" d="M72.000000 388.800000L518.400000 388.800000"/>
</g>
<g id="line2d23">
<defs><path id="m3400efa6b1638b3fea9e19e898273957" d="M0.000000 0.000000L4.000000 0.000000"/></defs>
<g ><use style="fill: none; stroke: #000000; stroke-width: 0.500000; stroke-linejoin: round; stroke-linecap: butt;  opacity: 1.000000" xlink:href="#m3400efa6b1638b3fea9e19e898273957" x="72.000000" y="388.800000"/>
</g></g>
<g id="line2d24">
<defs><path id="m20b58b2501143cb5e0a5e8f1ef6f1643" d="M0.000000 0.000000L-4.000000 0.000000"/></defs>
<g ><use style="fill: none; stroke: #000000; stroke-width: 0.500000; stroke-linejoin: round; stroke-linecap: butt;  opacity: 1.000000" xlink:href="#m20b58b2501143cb5e0a5e8f1ef6f1643" x="518.400000" y="388.800000"/>
</g></g>
<g id="text9">
<g style="fill: #000000; opacity: 1.000000" transform="translate(61.953125,393.167188)scale(0.120000)">
<use xlink:href="#c_7a2040fe3b94fcd41d0a72c84e93b115"/>
</g>
</g>
</g>
<g id="ytick2">
<g id="line2d25">
<path style="fill: none; stroke: #000000; stroke-width: 0.500000; stroke-linejoin: round; stroke-linecap: butt; stroke-dasharray: 1.000000,3.000000; stroke-dashoffset: 0.000000; opacity: 1.000000" clip-path="url(#p50431ccdcb28178602d99d9270004dde)" d="M72.000000 319.680000L518.400000 319.680000"/>
</g>
<g id="line2d26">
<g ><use style="fill: none; stroke: #000000; stroke-width: 0.500000; stroke-linejoin: round; stroke-linecap: butt;  opacity: 1.000000" xlink:href="#m3400efa6b1638b3fea9e19e898273957" x="72.000000" y="319.680000"/>
</g></g>
<g id="line2d27">
<g ><use style="fill: none; stroke: #000000; stroke-width: 0.500000; stroke-linejoin: round; stroke-linecap: butt;  opacity: 1.000000" xlink:href="#m20b58b2501143cb5e0a5e8f1ef6f1643" x="518.400000" y="319.680000"/>
</g></g>
<g id="text10">
<defs>
<path id="c_1260a2df50f305f3db244e29828f968e" d="M10.796875 -72.906250l38.718750 0.000000l0.000000 8.312500l-29.687500 0.000000l0.000000 17.859375q2.140625 -0.734375 4.281250 -1.093750q2.156250 -0.359375 4.312500 -0.359375q12.203125 0.000000 19.328125 6.687500q7.140625 6.687500 7.140625 18.109375q0.000000 11.765625 -7.328125 18.296875q-7.328125 6.515625 -20.656250 6.515625q-4.593750 0.000000 -9.359375 -0.781250q-4.750000 -0.781250 -9.828125 -2.343750l0.000000 -9.921875q4.390625 2.390625 9.078125 3.562500q4.687500 1.171875 9.906250 1.171875q8.453125 0.000000 13.375000 -4.437500q4.937500 -4.437500 4.937500 -12.062500q0.000000 -7.609375 -4.937500 -12.046875q-4.921875 -4.453125 -13.375000 -4.453125q-3.953125 0.000000 -7.890625 0.875000q-3.921875 0.875000 -8.015625 2.734375z"/>
</defs>
<g style="fill: #000000; opacity: 1.000000" transform="translate(54.437500,324.047188)scale(0.120000)">
<use xlink:href="#c_1260a2df50f305f3db244e29828f968e"/>
<use xlink:href="#c_7a2040fe3b94fcd41d0a72c84e93b115" x="63.623047"/>
</g>
</g>
</g>
<g id="ytick3">
<g id="line2d28">
<path style="fill: none; stroke: #000000; stroke-width: 0.500000; stroke-linejoin: round; stroke-linecap: butt; stroke-dasharray: 1.000000,3.000000; stroke-dashoffset: 0.000000; opacity: 1.000000" clip-path="url(#p50431ccdcb28178602d99d9270004dde)" d="M72.000000 250.560000L518.400000 250.560000"/>
</g>
<g id="line2d29">
<g ><use style="fill: none; stroke: #000000; stroke-width: 0.500000; stroke-linejoin: round; stroke-linecap: butt;  opacity: 1.000000" xlink:href="#m3400efa6b1638b3fea9e19e898273957" x="72.000000" y="250.560000"/>
</g></g>
<g id="line2d30">
<g ><use style="fill: none; stroke: #000000; stroke-width: 0.500000; stroke-linejoin: round; stroke-linecap: butt;  opacity: 1.000000" xlink:href="#m20b58b2501143cb5e0a5e8f1ef6f1643" x="518.400000" y="250.560000"/>
</g></g>
<g id="text11">
<g style="fill: #000000; opacity: 1.000000" transform="translate(47.187500,254.927188)scale(0.120000)">
<use xlink:href="#c_42baa63129a918535c52adb20d687ea7"/>
<use xlink:href="#c_7a2040fe3b94fcd41d0a72c84e93b115" x="63.623047"/>
<use xlink:href="#c_7a2040fe3b94fcd41d0a72c84e93b115" x="127.246094"/>
</g>
</g>
</g>
<g id="ytick4">
<g id="line2d31">
<path style="fill: none; stroke: #000000; stroke-width: 0.500000; stroke-linejoin: round; stroke-linecap: butt; stroke-dasharray: 1.000000,3.000000; stroke-dashoffset: 0.000000; opacity: 1.000000" clip-path="url(#p50431ccdcb28178602d99d9270004dde)" d="M72.000000 181.440000L518.400000 181.440000"/>
</g>
<g id="line2d32">
<g ><use style="fill: none; stroke: #000000; stroke-width: 0.500000; stroke-linejoin: round; stroke-linecap: butt;  opacity: 1.000000" xlink:href="#m3400efa6b1638b3fea9e19e898273957" x="72.000000" y="181.440000"/>
</g></g>
<g id="line2d33">
<g ><use style="fill: none; stroke: #000000; stroke-width: 0.500000; stroke-linejoin: round; stroke-linecap: butt;  opacity: 1.000000" xlink:href="#m20b58b2501143cb5e0a5e8f1ef6f1643" x="518.400000" y="181.440000"/>
</g></g>
<g id="text12">
<g style="fill: #000000; opacity: 1.000000" transform="translate(47.187500,185.807187)scale(0.120000)">
<use xlink:href="#c_42baa63129a918535c52adb20d687ea7"/>
<use xlink:href="#c_1260a2df50f305f3db244e29828f968e" x="63.623047"/>
<use xlink:href="#c_7a2040fe3b94fcd41d0a72c84e93b115" x="127.246094"/>
</g>
</g>
</g>
<g id="ytick5">
<g id="line2d34">
<path style="fill: none; stroke: #000000; stroke-width: 0.500000; stroke-linejoin: round; stroke-linecap: butt; stroke-dasharray: 1.000000,3.000000; stroke-dashoffset: 0.000000; opacity: 1.000000" clip-path="url(#p50431ccdcb28178602d99d9270004dde)" d="M72.000000 112.320000L518.400000 112.320000"/>
</g>
<g id="line2d35">
<g ><use style="fill: none; stroke: #000000; stroke-width: 0.500000; stroke-linejoin: round; stroke-linecap: butt;  opacity: 1.000000" xlink:href="#m3400efa6b1638b3fea9e19e898273957" x="72.000000" y="112.320000"/>
</g></g>
<g id="line2d36">
<g ><use style="fill: none; stroke: #000000; stroke-width: 0.500000; stroke-linejoin: round; stroke-linecap: butt;  opacity: 1.000000" xlink:href="#m20b58b2501143cb5e0a5e8f1ef6f1643" x="518.400000" y="112.320000"/>
</g></g>
<g id="text13">
<g style="fill: #000000; opacity: 1.000000" transform="translate(46.750000,116.687187)scale(0.120000)">
<use xlink:href="#c_ed3f3ed3ebfbd18bcb9c012009a68ad1"/>
<use xlink:href="#c_7a2040fe3b94fcd41d0a72c84e93b115" x="63.623047"/>
<use xlink:href="#c_7a2040fe3b94fcd41d0a72c84e93b115" x="127.246094"/>
</g>
</g>
</g>
<g id="ytick6">
<g id="line2d37">
<path style="fill: none; stroke: #000000; stroke-width: 0.500000; stroke-linejoin: round; stroke-linecap: butt; stroke-dasharray: 1.000000,3.000000; stroke-dashoffset: 0.000000; opacity: 1.000000" clip-path="url(#p50431ccdcb28178602d99d9270004dde)" d="M72.000000 43.200000L518.400000 43.200000"/>
</g>
<g id="line2d38">
<g ><use style="fill: none; stroke: #000000; stroke-width: 0.500000; stroke-linejoin: round; stroke-linecap: butt;  opacity: 1.000000" xlink:href="#m3400efa6b1638b3fea9e19e898273957" x="72.000000" y="43.200000"/>
</g></g>
<g id="line2d39">
<g ><use style="fill: none; stroke: #000000; stroke-width: 0.500000; stroke-linejoin: round; stroke-linecap: butt;  opacity: 1.000000" xlink:href="#m20b58b2501143cb5e0a5e8f1ef6f1643" x="518.400000" y="43.200000"/>
</g></g>
<g id="text14">
<g style="fill: #000000; opacity: 1.000000" transform="translate(46.750000,47.567187)scale(0.120000)">
<use xlink:href="#c_ed3f3ed3ebfbd18bcb9c012009a68ad1"/>
<use xlink:href="#c_1260a2df50f305f3db244e29828f968e" x="63.623047"/>
<use xlink:href="#c_7a2040fe3b94fcd41d0a72c84e93b115" x="127.246094"/>
</g>
</g>
</g>
<g id="text15">
<defs>
<path id="c_fabc000b0fb83f456ee9f092ad635e20" d="M9.812500 -72.906250l13.281250 0.000000l32.328125 60.984375l0.000000 -60.984375l9.562500 0.000000l0.000000 72.906250l-13.281250 0.000000l-32.312500 -60.984375l0.000000 60.984375l-9.578125 0.000000z"/>
<path id="c_5cc9741494d2ad8f9764e03ae145569f" d="M48.687500 -27.296875q0.000000 -9.906250 -4.078125 -15.546875q-4.078125 -5.640625 -11.203125 -5.640625q-7.140625 0.000000 -11.218750 5.640625q-4.078125 5.640625 -4.078125 15.546875q0.000000 9.906250 4.078125 15.546875q4.078125 5.640625 11.218750 5.640625q7.125000 0.000000 11.203125 -5.640625q4.078125 -5.640625 4.078125 -15.546875M18.109375 -46.390625q2.843750 -4.875000 7.156250 -7.234375q4.328125 -2.375000 10.328125 -2.375000q9.968750 0.000000 16.187500 7.906250q6.234375 7.906250 6.234375 20.796875q0.000000 12.890625 -6.234375 20.812500q-6.218750 7.906250 -16.187500 7.906250q-6.000000 0.000000 -10.328125 -2.375000q-4.312500 -2.375000 -7.156250 -7.250000l0.000000 8.203125l-9.031250 0.000000l0.000000 -75.984375l9.031250 0.000000z"/>
</defs>
<g style="fill: #000000; opacity: 1.000000" transform="translate(41.750000,239.359375)rotate(-90.0)scale(0.120000)">
<use xlink:href="#c_fabc000b0fb83f456ee9f092ad635e20"/>
<use xlink:href="#c_c438d87e693443c2861ebd6359e6491e" x="74.804688"/>
<use xlink:href="#c_4653c6dfde66c7610eae0911760d3490" x="138.183594"/>
<use xlink:href="#c_5cc9741494d2ad8f9764e03ae145569f" x="235.595703"/>
<use xlink:href="#c_0bce5afba2dc6b9024b26277c38ad8e8" x="299.072266"/>
<use xlink:href="#c_6ec8d5749226675394676a5d2a3b468b" x="360.595703"/>
</g>
</g>
</g>
<g id="patch53">
<path style="fill: none; stroke: #000000; stroke-width: 1.000000; stroke-linejoin: round; stroke-linecap: square;  opacity: 1.000000"  d="M72.000000 43.200000L518.400000 43.200000"/>
</g>
<g id="patch54">
<path style="fill: none; stroke: #000000; stroke-width: 1.000000; stroke-linejoin: round; stroke-linecap: square;  opacity: 1.000000"  d="M518.400000 388.800000L518.400000 43.200000"/>
</g>
<g id="patch55">
<path style="fill: none; stroke: #000000; stroke-width: 1.000000; stroke-linejoin: round; stroke-linecap: square;  opacity: 1.000000"  d="M72.000000 388.800000L518.400000 388.800000"/>
</g>
<g id="patch56">
<path style="fill: none; stroke: #000000; stroke-width: 1.000000; stroke-linejoin: round; stroke-linecap: square;  opacity: 1.000000"  d="M72.000000 388.800000L72.000000 43.200000"/>
</g>
<g id="text16">
<defs>
<path id="c_6ec1680e90fa8ca45a16adfb36f15637" d="M3.078125 -0.000000l0.000000 -3.515625q10.296875 0.000000 10.296875 -3.171875l0.000000 -54.937500q0.000000 -3.171875 -10.296875 -3.171875l0.000000 -3.515625l29.937500 0.000000l0.000000 3.515625q-10.312500 0.000000 -10.312500 3.171875l0.000000 24.312500l29.500000 0.000000l0.000000 -24.312500q0.000000 -3.171875 -10.312500 -3.171875l0.000000 -3.515625l29.890625 0.000000l0.000000 3.515625q-10.250000 0.000000 -10.250000 3.171875l0.000000 54.937500q0.000000 3.171875 10.250000 3.171875l0.000000 3.515625l-29.890625 0.000000l0.000000 -3.515625q10.312500 0.000000 10.312500 -3.171875l0.000000 -27.109375l-29.500000 0.000000l0.000000 27.109375q0.000000 3.171875 10.312500 3.171875l0.000000 3.515625z"/>
<path id="c_d0e9685c400095fadecacf1c50b32774" d="M24.906250 1.125000q-6.109375 0.000000 -11.218750 -3.203125q-5.093750 -3.203125 -8.000000 -8.546875q-2.906250 -5.343750 -2.906250 -11.296875q0.000000 -5.859375 2.656250 -11.125000q2.671875 -5.281250 7.421875 -8.531250q4.765625 -3.250000 10.625000 -3.250000q4.593750 0.000000 7.984375 1.546875q3.390625 1.531250 5.593750 4.265625q2.203125 2.734375 3.312500 6.453125q1.125000 3.703125 1.125000 8.140625q0.000000 1.328125 -1.015625 1.328125l-28.953125 0.000000l0.000000 1.078125q0.000000 8.296875 3.343750 14.250000q3.343750 5.953125 10.906250 5.953125q3.078125 0.000000 5.687500 -1.359375q2.609375 -1.375000 4.531250 -3.812500q1.937500 -2.437500 2.625000 -5.218750q0.093750 -0.343750 0.359375 -0.609375q0.281250 -0.281250 0.609375 -0.281250l0.890625 0.000000q1.015625 0.000000 1.015625 1.281250q-1.406250 5.656250 -6.093750 9.296875q-4.687500 3.640625 -10.500000 3.640625M11.625000 -25.593750l22.796875 0.000000q0.000000 -3.750000 -1.046875 -7.609375q-1.046875 -3.859375 -3.500000 -6.421875q-2.437500 -2.562500 -6.390625 -2.562500q-5.656250 0.000000 -8.765625 5.296875q-3.093750 5.296875 -3.093750 11.296875"/>
<path id="c_a764f622c6f118158a993ace88ddaf97" d="M3.078125 -0.000000l0.000000 -3.515625q3.421875 0.000000 5.609375 -0.531250q2.203125 -0.546875 2.203125 -2.640625l0.000000 -52.500000q0.000000 -2.671875 -0.812500 -3.875000q-0.796875 -1.203125 -2.312500 -1.468750q-1.515625 -0.265625 -4.687500 -0.265625l0.000000 -3.515625l14.843750 -1.078125l0.000000 62.703125q0.000000 2.093750 2.187500 2.640625q2.203125 0.531250 5.578125 0.531250l0.000000 3.515625z"/>
<path id="c_47bb69df3dc90fb95dede367e92e714c" d="M3.078125 -0.000000l0.000000 -3.515625q3.421875 0.000000 5.609375 -0.531250q2.203125 -0.546875 2.203125 -2.640625l0.000000 -27.296875q0.000000 -3.859375 -1.500000 -4.734375q-1.484375 -0.875000 -5.875000 -0.875000l0.000000 -3.515625l14.406250 -1.078125l0.000000 37.500000q0.000000 2.093750 1.906250 2.640625q1.906250 0.531250 5.078125 0.531250l0.000000 3.515625zM7.328125 -61.375000q0.000000 -2.203125 1.656250 -3.859375q1.656250 -1.656250 3.812500 -1.656250q1.406250 0.000000 2.718750 0.734375q1.328125 0.718750 2.062500 2.046875q0.734375 1.312500 0.734375 2.734375q0.000000 2.140625 -1.671875 3.812500q-1.656250 1.656250 -3.843750 1.656250q-2.156250 0.000000 -3.812500 -1.656250q-1.656250 -1.671875 -1.656250 -3.812500"/>
<path id="c_3f72f0e1b2c8acfc5e912f2e891b93aa" d="M25.000000 1.125000q-6.000000 0.000000 -11.140625 -3.046875q-5.125000 -3.062500 -8.109375 -8.187500q-2.968750 -5.125000 -2.968750 -11.187500q0.000000 -4.578125 1.640625 -8.828125q1.640625 -4.250000 4.687500 -7.593750q3.046875 -3.343750 7.093750 -5.218750q4.062500 -1.890625 8.796875 -1.890625q6.156250 0.000000 11.203125 3.250000q5.062500 3.250000 7.984375 8.703125q2.937500 5.437500 2.937500 11.578125q0.000000 6.015625 -2.984375 11.171875q-2.984375 5.140625 -8.093750 8.203125q-5.093750 3.046875 -11.046875 3.046875M25.000000 -1.812500q8.015625 0.000000 10.687500 -5.796875q2.687500 -5.812500 2.687500 -14.796875q0.000000 -5.031250 -0.531250 -8.328125q-0.531250 -3.296875 -2.343750 -5.984375q-1.125000 -1.656250 -2.859375 -2.906250q-1.734375 -1.250000 -3.671875 -1.906250q-1.921875 -0.656250 -3.968750 -0.656250q-3.125000 0.000000 -5.937500 1.421875q-2.796875 1.406250 -4.656250 4.046875q-1.859375 2.828125 -2.375000 6.234375q-0.500000 3.390625 -0.500000 8.078125q0.000000 5.609375 0.968750 10.078125q0.984375 4.468750 3.937500 7.500000q2.953125 3.015625 8.562500 3.015625"/>
<path id="c_7e3c12e02a7786702e19d1dc73f5dbb6" d="M24.421875 -0.000000l-14.609375 -36.718750q-0.921875 -1.859375 -2.859375 -2.359375q-1.921875 -0.515625 -5.046875 -0.515625l0.000000 -3.515625l21.000000 0.000000l0.000000 3.515625q-5.625000 0.000000 -5.625000 2.390625q0.000000 0.390625 0.109375 0.578125l11.218750 28.218750l10.109375 -25.484375q0.296875 -0.781250 0.296875 -1.609375q0.000000 -1.906250 -1.437500 -3.000000q-1.437500 -1.093750 -3.390625 -1.093750l0.000000 -3.515625l16.593750 0.000000l0.000000 3.515625q-3.078125 0.000000 -5.406250 1.421875q-2.312500 1.406250 -3.578125 4.187500l-13.468750 33.984375q-0.390625 1.125000 -1.625000 1.125000l-0.718750 0.000000q-1.234375 0.000000 -1.562500 -1.125000"/>
<path id="c_d0486140fb7352cc4470392a52148673" d="M22.125000 -0.000000l-12.937500 -36.375000q-0.890625 -2.203125 -2.546875 -2.703125q-1.656250 -0.515625 -4.828125 -0.515625l0.000000 -3.515625l20.593750 0.000000l0.000000 3.515625q-5.906250 0.000000 -5.906250 2.484375q0.046875 0.140625 0.078125 0.296875q0.031250 0.140625 0.031250 0.437500l9.609375 26.953125l8.296875 -23.484375l-1.312500 -3.468750q-0.781250 -2.203125 -2.500000 -2.703125q-1.703125 -0.515625 -4.828125 -0.515625l0.000000 -3.515625l19.734375 0.000000l0.000000 3.515625q-5.906250 0.000000 -5.906250 2.484375q0.000000 0.390625 0.093750 0.734375l10.015625 28.171875l9.078125 -25.484375q0.187500 -0.781250 0.187500 -1.421875q0.000000 -2.093750 -1.781250 -3.281250q-1.781250 -1.203125 -3.968750 -1.203125l0.000000 -3.515625l16.984375 0.000000l0.000000 3.515625q-3.031250 0.000000 -5.203125 1.593750q-2.171875 1.578125 -3.187500 4.312500l-11.921875 33.687500q-0.343750 1.125000 -1.515625 1.125000l-0.781250 0.000000q-1.171875 0.000000 -1.515625 -1.125000l-10.109375 -28.515625l-10.093750 28.515625q-0.500000 1.125000 -1.562500 1.125000l-0.734375 0.000000q-1.218750 0.000000 -1.562500 -1.125000"/>
<path id="c_65956250002d0f90c06d8ccc2c0965b8" d="M2.593750 -0.000000l0.000000 -3.515625q3.406250 0.000000 5.609375 -0.531250q2.203125 -0.546875 2.203125 -2.640625l0.000000 -27.296875q0.000000 -2.687500 -0.812500 -3.875000q-0.796875 -1.203125 -2.312500 -1.468750q-1.515625 -0.265625 -4.687500 -0.265625l0.000000 -3.515625l14.296875 -1.078125l0.000000 9.765625q1.609375 -4.343750 4.593750 -7.046875q2.984375 -2.718750 7.234375 -2.718750q2.968750 0.000000 5.312500 1.765625q2.343750 1.750000 2.343750 4.625000q0.000000 1.812500 -1.296875 3.156250q-1.281250 1.343750 -3.187500 1.343750q-1.859375 0.000000 -3.187500 -1.312500q-1.312500 -1.328125 -1.312500 -3.187500q0.000000 -2.687500 1.906250 -3.812500l-0.578125 0.000000q-4.062500 0.000000 -6.625000 2.937500q-2.562500 2.921875 -3.640625 7.281250q-1.062500 4.343750 -1.062500 8.296875l0.000000 16.406250q0.000000 3.171875 9.703125 3.171875l0.000000 3.515625z"/>
<path id="c_290de001110bbfe9b991538e8cdd47a8" d="M2.593750 -0.000000l0.000000 -3.515625q10.781250 0.000000 10.781250 -3.171875l0.000000 -54.937500q0.000000 -3.171875 -10.781250 -3.171875l0.000000 -3.515625l30.906250 0.000000l0.000000 3.515625q-10.796875 0.000000 -10.796875 3.171875l0.000000 54.937500q0.000000 3.171875 10.796875 3.171875l0.000000 3.515625z"/>
<path id="c_4fabef8985c318b4fd571dae195dd082" d="M2.984375 -0.000000l0.000000 -3.515625q3.406250 0.000000 5.609375 -0.531250q2.203125 -0.546875 2.203125 -2.640625l0.000000 -27.296875q0.000000 -2.687500 -0.812500 -3.875000q-0.796875 -1.203125 -2.312500 -1.468750q-1.515625 -0.265625 -4.687500 -0.265625l0.000000 -3.515625l14.500000 -1.078125l0.000000 9.765625q2.000000 -4.296875 5.921875 -7.031250q3.937500 -2.734375 8.578125 -2.734375q11.515625 0.000000 13.531250 9.375000q2.000000 -4.203125 5.843750 -6.781250q3.859375 -2.593750 8.453125 -2.593750q4.546875 0.000000 7.640625 1.468750q3.109375 1.453125 4.671875 4.468750q1.562500 3.000000 1.562500 7.531250l0.000000 24.031250q0.000000 2.093750 2.218750 2.640625q2.218750 0.531250 5.593750 0.531250l0.000000 3.515625l-22.906250 0.000000l0.000000 -3.515625q3.421875 0.000000 5.609375 -0.531250q2.203125 -0.546875 2.203125 -2.640625l0.000000 -23.734375q0.000000 -5.031250 -1.421875 -8.109375q-1.406250 -3.078125 -5.796875 -3.078125q-5.765625 0.000000 -9.531250 4.640625q-3.750000 4.640625 -3.750000 10.546875l0.000000 19.734375q0.000000 2.093750 2.187500 2.640625q2.203125 0.531250 5.625000 0.531250l0.000000 3.515625l-22.906250 0.000000l0.000000 -3.515625q3.421875 0.000000 5.609375 -0.531250q2.203125 -0.546875 2.203125 -2.640625l0.000000 -23.734375q0.000000 -4.875000 -1.421875 -8.031250q-1.406250 -3.156250 -5.812500 -3.156250q-5.796875 0.000000 -9.546875 4.640625q-3.734375 4.640625 -3.734375 10.546875l0.000000 19.734375q0.000000 2.093750 2.203125 2.640625q2.203125 0.531250 5.562500 0.531250l0.000000 3.515625z"/>
<path id="c_602ee8198ab7fa3b459c8e69c5b85b3d" d="M4.000000 -9.812500q0.000000 -5.953125 4.687500 -9.687500q4.687500 -3.750000 11.250000 -5.281250q6.578125 -1.531250 12.484375 -1.531250l0.000000 -4.109375q0.000000 -2.875000 -1.265625 -5.578125q-1.265625 -2.718750 -3.671875 -4.453125q-2.390625 -1.734375 -5.265625 -1.734375q-6.640625 0.000000 -10.109375 2.984375q1.906250 0.000000 3.140625 1.437500q1.250000 1.437500 1.250000 3.343750q0.000000 2.000000 -1.421875 3.421875q-1.406250 1.406250 -3.359375 1.406250q-2.000000 0.000000 -3.421875 -1.406250q-1.406250 -1.421875 -1.406250 -3.421875q0.000000 -5.281250 4.781250 -7.843750q4.781250 -2.562500 10.546875 -2.562500q4.046875 0.000000 8.140625 1.734375q4.109375 1.734375 6.718750 4.968750q2.625000 3.218750 2.625000 7.515625l0.000000 22.500000q0.000000 1.953125 0.828125 3.593750q0.828125 1.640625 2.578125 1.640625q1.671875 0.000000 2.468750 -1.656250q0.812500 -1.671875 0.812500 -3.578125l0.000000 -6.390625l2.921875 0.000000l0.000000 6.390625q0.000000 2.250000 -1.171875 4.281250q-1.171875 2.015625 -3.156250 3.218750q-1.968750 1.203125 -4.265625 1.203125q-2.921875 0.000000 -5.046875 -2.265625q-2.125000 -2.281250 -2.375000 -5.406250q-1.843750 3.750000 -5.468750 5.984375q-3.609375 2.218750 -7.703125 2.218750q-3.812500 0.000000 -7.500000 -1.125000q-3.687500 -1.125000 -6.156250 -3.531250q-2.468750 -2.421875 -2.468750 -6.281250M12.109375 -9.812500q0.000000 3.515625 2.578125 5.906250q2.593750 2.390625 6.109375 2.390625q3.234375 0.000000 5.859375 -1.609375q2.640625 -1.609375 4.203125 -4.390625q1.562500 -2.781250 1.562500 -5.859375l0.000000 -10.406250q-4.546875 0.000000 -9.312500 1.500000q-4.750000 1.484375 -7.875000 4.656250q-3.125000 3.171875 -3.125000 7.812500"/>
<path id="c_3877d6afdbe473a50acdfd061b4e65d6" d="M2.781250 7.812500q0.000000 -3.562500 2.578125 -6.234375q2.593750 -2.656250 6.171875 -3.781250q-2.015625 -1.515625 -3.062500 -3.796875q-1.046875 -2.296875 -1.046875 -4.890625q0.000000 -4.687500 2.984375 -8.296875q-4.593750 -4.500000 -4.593750 -10.312500q0.000000 -3.125000 1.343750 -5.859375q1.343750 -2.734375 3.734375 -4.734375q2.390625 -2.000000 5.312500 -3.046875q2.937500 -1.046875 6.015625 -1.046875q5.953125 0.000000 10.687500 3.468750q2.062500 -2.203125 4.859375 -3.390625q2.812500 -1.203125 5.843750 -1.203125q2.140625 0.000000 3.500000 1.546875q1.375000 1.531250 1.375000 3.671875q0.000000 1.218750 -0.937500 2.156250q-0.921875 0.921875 -2.140625 0.921875q-1.265625 0.000000 -2.203125 -0.921875q-0.921875 -0.937500 -0.921875 -2.156250q0.000000 -1.843750 1.218750 -2.578125q-5.171875 0.000000 -8.875000 3.562500q1.796875 1.796875 2.890625 4.421875q1.109375 2.609375 1.109375 5.187500q0.000000 4.250000 -2.343750 7.656250q-2.343750 3.390625 -6.187500 5.265625q-3.828125 1.875000 -7.875000 1.875000q-5.468750 0.000000 -10.015625 -2.968750q-1.406250 1.953125 -1.406250 4.390625q0.000000 2.640625 1.734375 4.625000q1.734375 1.968750 4.359375 1.968750l8.203125 0.000000q5.968750 0.000000 10.750000 1.078125q4.781250 1.062500 8.031250 4.296875q3.250000 3.218750 3.250000 9.125000q0.000000 4.390625 -3.718750 7.296875q-3.703125 2.906250 -8.859375 4.203125q-5.156250 1.296875 -9.546875 1.296875q-4.437500 0.000000 -9.625000 -1.296875q-5.171875 -1.296875 -8.890625 -4.203125q-3.703125 -2.906250 -3.703125 -7.296875M8.406250 7.812500q0.000000 3.375000 2.734375 5.640625q2.734375 2.265625 6.578125 3.359375q3.859375 1.109375 7.281250 1.109375q3.375000 0.000000 7.218750 -1.109375q3.859375 -1.093750 6.562500 -3.359375q2.718750 -2.265625 2.718750 -5.640625q0.000000 -5.218750 -4.781250 -6.765625q-4.781250 -1.531250 -11.625000 -1.531250l-8.203125 0.000000q-2.296875 0.000000 -4.218750 1.093750q-1.921875 1.093750 -3.093750 3.078125q-1.171875 1.984375 -1.171875 4.125000M22.218750 -17.390625q8.500000 0.000000 8.500000 -12.109375q0.000000 -5.218750 -1.812500 -8.609375q-1.812500 -3.390625 -6.687500 -3.390625q-4.890625 0.000000 -6.703125 3.390625q-1.796875 3.390625 -1.796875 8.609375q0.000000 3.328125 0.687500 6.015625q0.687500 2.687500 2.531250 4.390625q1.859375 1.703125 5.281250 1.703125"/>
<path id="c_92fca36f2f37f23c1c8c53e69327fcb5" d="M38.921875 2.203125q-9.531250 0.000000 -17.125000 -5.046875q-7.593750 -5.062500 -11.890625 -13.437500q-4.296875 -8.375000 -4.296875 -17.609375q0.000000 -6.828125 2.468750 -13.515625q2.468750 -6.703125 6.890625 -11.875000q4.421875 -5.171875 10.609375 -8.203125q6.203125 -3.031250 13.343750 -3.031250q7.078125 0.000000 13.296875 3.062500q6.234375 3.046875 10.671875 8.281250q4.437500 5.218750 6.828125 11.718750q2.406250 6.484375 2.406250 13.562500q0.000000 6.890625 -2.421875 13.437500q-2.421875 6.531250 -7.031250 11.718750q-4.609375 5.171875 -10.765625 8.046875q1.906250 4.453125 3.906250 6.906250q2.000000 2.468750 5.562500 2.468750q3.765625 0.000000 6.453125 -2.593750q2.687500 -2.578125 2.687500 -6.296875q0.000000 -0.328125 0.359375 -0.625000q0.359375 -0.296875 0.703125 -0.296875q1.125000 0.000000 1.125000 1.328125q0.000000 7.171875 -2.812500 13.171875q-2.796875 6.015625 -9.203125 6.015625q-3.515625 0.000000 -5.812500 -1.734375q-2.281250 -1.734375 -3.484375 -4.406250q-1.187500 -2.656250 -1.875000 -6.171875q-0.687500 -3.515625 -1.218750 -6.390625q-4.406250 1.515625 -9.375000 1.515625M38.921875 -0.687500q4.484375 0.000000 8.687500 -2.296875q-0.921875 -4.296875 -2.859375 -6.859375q-1.921875 -2.562500 -5.828125 -2.562500q-2.390625 0.000000 -4.062500 1.781250q-1.656250 1.781250 -1.656250 4.125000q0.000000 2.546875 1.578125 4.187500q1.593750 1.625000 4.140625 1.625000M30.609375 -6.500000q0.000000 -2.187500 1.078125 -4.140625q1.078125 -1.953125 3.000000 -3.140625q1.937500 -1.203125 4.234375 -1.203125q4.343750 0.000000 6.875000 2.812500q2.546875 2.796875 4.500000 7.578125q3.312500 -2.484375 5.562500 -5.875000q2.250000 -3.406250 3.484375 -7.140625q1.250000 -3.734375 1.812500 -7.906250q0.562500 -4.171875 0.562500 -8.375000q0.000000 -6.937500 -1.390625 -13.031250q-1.390625 -6.109375 -4.718750 -10.984375q-2.875000 -4.343750 -7.328125 -7.000000q-4.437500 -2.671875 -9.359375 -2.671875q-5.031250 0.000000 -9.453125 2.609375q-4.421875 2.609375 -7.343750 7.062500q-3.421875 4.968750 -4.765625 11.078125q-1.343750 6.109375 -1.343750 12.937500q0.000000 10.640625 3.609375 19.359375q3.625000 8.718750 12.062500 12.328125q-1.078125 -2.046875 -1.078125 -4.296875"/>
<path id="c_e0e62bc5d2523c895b9035c926fafa26" d="M10.796875 -11.921875l0.000000 -22.062500q0.000000 -2.687500 -0.812500 -3.875000q-0.796875 -1.203125 -2.312500 -1.468750q-1.515625 -0.265625 -4.687500 -0.265625l0.000000 -3.515625l15.125000 -1.078125l0.000000 32.265625q0.000000 3.906250 0.562500 6.093750q0.562500 2.171875 2.390625 3.250000q1.843750 1.062500 5.843750 1.062500q5.375000 0.000000 8.546875 -4.484375q3.171875 -4.500000 3.171875 -10.218750l0.000000 -17.765625q0.000000 -2.687500 -0.828125 -3.875000q-0.828125 -1.203125 -2.328125 -1.468750q-1.484375 -0.265625 -4.656250 -0.265625l0.000000 -3.515625l15.093750 -1.078125l0.000000 35.109375q0.000000 2.625000 0.796875 3.828125q0.812500 1.203125 2.312500 1.468750q1.515625 0.265625 4.703125 0.265625l0.000000 3.515625l-14.796875 1.125000l0.000000 -8.453125q-1.859375 3.765625 -5.187500 6.109375q-3.312500 2.343750 -7.312500 2.343750q-7.187500 0.000000 -11.406250 -3.046875q-4.218750 -3.062500 -4.218750 -10.000000"/>
<path id="c_bd192a9e73fe8ca4e6a99ee1a497910b" d="M6.890625 16.406250q1.906250 1.515625 4.187500 1.515625q6.312500 0.000000 10.312500 -9.515625l3.421875 -8.406250l-15.000000 -36.718750q-0.921875 -1.859375 -2.828125 -2.359375q-1.906250 -0.515625 -5.078125 -0.515625l0.000000 -3.515625l21.000000 0.000000l0.000000 3.515625q-5.515625 0.000000 -5.515625 2.390625q0.000000 0.390625 0.093750 0.578125l11.125000 27.343750l10.015625 -24.609375q0.296875 -0.781250 0.296875 -1.703125q0.000000 -1.218750 -0.671875 -2.125000q-0.656250 -0.906250 -1.703125 -1.390625q-1.046875 -0.484375 -2.359375 -0.484375l0.000000 -3.515625l16.593750 0.000000l0.000000 3.515625q-3.078125 0.000000 -5.406250 1.421875q-2.312500 1.406250 -3.578125 4.187500l-17.281250 42.390625q-1.375000 3.218750 -3.203125 5.921875q-1.828125 2.718750 -4.468750 4.453125q-2.640625 1.734375 -5.765625 1.734375q-3.656250 0.000000 -6.421875 -2.421875q-2.750000 -2.421875 -2.750000 -5.984375q0.000000 -1.859375 1.265625 -3.125000q1.265625 -1.265625 3.125000 -1.265625q1.265625 0.000000 2.265625 0.562500q1.015625 0.562500 1.562500 1.531250q0.562500 0.984375 0.562500 2.296875q0.000000 1.609375 -1.078125 2.875000q-1.062500 1.281250 -2.718750 1.421875"/>
<path id="c_6a31cc82e296cf321b8f9d3243a66d3e" d="M16.890625 -0.000000l0.000000 -3.515625q5.031250 0.000000 9.765625 -0.562500q4.734375 -0.562500 4.734375 -2.609375l0.000000 -54.937500q0.000000 -2.140625 -1.203125 -2.656250q-1.187500 -0.515625 -3.875000 -0.515625l-4.187500 0.000000q-8.250000 0.000000 -11.718750 3.609375q-1.812500 1.812500 -2.593750 5.796875q-0.781250 3.968750 -1.312500 9.984375l-2.890625 0.000000l1.906250 -22.906250l61.093750 0.000000l1.890625 22.906250l-2.921875 0.000000q-0.593750 -6.453125 -1.296875 -10.234375q-0.703125 -3.781250 -2.562500 -5.546875q-3.515625 -3.609375 -11.718750 -3.609375l-4.203125 0.000000q-1.796875 0.000000 -2.796875 0.156250q-1.000000 0.140625 -1.640625 0.843750q-0.640625 0.703125 -0.640625 2.171875l0.000000 54.937500q0.000000 2.046875 4.734375 2.609375q4.750000 0.562500 9.718750 0.562500l0.000000 3.515625z"/>
<path id="c_41fe0072812962a58aa3455d463195d3" d="M8.406250 -5.515625q0.000000 -2.250000 1.656250 -3.859375q1.656250 -1.609375 3.859375 -1.609375q1.359375 0.000000 2.671875 0.734375q1.328125 0.734375 2.062500 2.046875q0.734375 1.312500 0.734375 2.687500q0.000000 2.187500 -1.625000 3.859375q-1.609375 1.656250 -3.843750 1.656250q-2.203125 0.000000 -3.859375 -1.656250q-1.656250 -1.671875 -1.656250 -3.859375M8.406250 -37.593750q0.000000 -1.421875 0.718750 -2.687500q0.734375 -1.265625 2.031250 -2.046875q1.296875 -0.781250 2.765625 -0.781250q1.406250 0.000000 2.703125 0.781250q1.296875 0.781250 2.031250 2.046875q0.734375 1.265625 0.734375 2.687500q0.000000 2.234375 -1.593750 3.875000q-1.578125 1.640625 -3.875000 1.640625q-2.250000 0.000000 -3.890625 -1.640625q-1.625000 -1.640625 -1.625000 -3.875000"/>
<path id="c_4e79783b4799b416f9678acefc53a48a" d="M7.718750 -1.703125q0.000000 -0.593750 0.093750 -0.890625l7.468750 -29.828125q0.734375 -2.781250 0.734375 -4.890625q0.000000 -4.296875 -2.921875 -4.296875q-3.125000 0.000000 -4.640625 3.750000q-1.515625 3.734375 -2.937500 9.437500q0.000000 0.296875 -0.296875 0.468750q-0.281250 0.171875 -0.531250 0.171875l-1.171875 0.000000q-0.343750 0.000000 -0.593750 -0.359375q-0.234375 -0.375000 -0.234375 -0.671875q1.078125 -4.343750 2.078125 -7.359375q1.000000 -3.031250 3.125000 -5.515625q2.125000 -2.500000 5.296875 -2.500000q3.750000 0.000000 6.625000 2.375000q2.890625 2.359375 2.890625 6.015625q2.984375 -3.906250 6.984375 -6.140625q4.000000 -2.250000 8.500000 -2.250000q3.562500 0.000000 6.140625 1.218750q2.593750 1.218750 4.031250 3.687500q1.453125 2.468750 1.453125 5.875000q0.000000 4.109375 -1.843750 9.921875q-1.828125 5.812500 -4.562500 12.984375q-1.406250 3.265625 -1.406250 6.000000q0.000000 2.984375 2.281250 2.984375q3.906250 0.000000 6.515625 -4.187500q2.625000 -4.203125 3.703125 -9.000000q0.187500 -0.578125 0.828125 -0.578125l1.171875 0.000000q0.390625 0.000000 0.656250 0.250000q0.265625 0.234375 0.265625 0.625000q0.000000 0.093750 -0.093750 0.296875q-1.375000 5.656250 -4.765625 10.453125q-3.390625 4.781250 -8.468750 4.781250q-3.515625 0.000000 -6.015625 -2.421875q-2.484375 -2.421875 -2.484375 -5.875000q0.000000 -1.859375 0.781250 -3.906250q1.265625 -3.281250 2.906250 -7.812500q1.640625 -4.546875 2.687500 -8.687500q1.046875 -4.156250 1.046875 -7.328125q0.000000 -2.796875 -1.156250 -4.750000q-1.140625 -1.953125 -3.875000 -1.953125q-3.656250 0.000000 -6.734375 1.625000q-3.078125 1.609375 -5.375000 4.265625q-2.296875 2.656250 -4.187500 6.328125l-6.796875 27.187500q-0.343750 1.375000 -1.546875 2.343750q-1.187500 0.984375 -2.656250 0.984375q-1.218750 0.000000 -2.093750 -0.781250q-0.875000 -0.781250 -0.875000 -2.046875"/>
<path id="c_7bbc93c01755cdeb977d08bdfb9ce616" d="M7.515625 -13.281250q-0.828125 0.000000 -1.375000 -0.625000q-0.531250 -0.640625 -0.531250 -1.375000q0.000000 -0.828125 0.531250 -1.406250q0.546875 -0.593750 1.375000 -0.593750l62.796875 0.000000q0.734375 0.000000 1.265625 0.593750q0.546875 0.578125 0.546875 1.406250q0.000000 0.734375 -0.546875 1.375000q-0.531250 0.625000 -1.265625 0.625000zM7.515625 -32.718750q-0.828125 0.000000 -1.375000 -0.578125q-0.531250 -0.593750 -0.531250 -1.421875q0.000000 -0.734375 0.531250 -1.359375q0.546875 -0.640625 1.375000 -0.640625l62.796875 0.000000q0.734375 0.000000 1.265625 0.640625q0.546875 0.625000 0.546875 1.359375q0.000000 0.828125 -0.546875 1.421875q-0.531250 0.578125 -1.265625 0.578125z"/>
<path id="c_1a459ac34855d27ec37ccb0e66298d36" d="M9.281250 -0.000000l0.000000 -3.515625q12.500000 0.000000 12.500000 -3.171875l0.000000 -52.500000q-5.171875 2.500000 -13.093750 2.500000l0.000000 -3.515625q12.265625 0.000000 18.515625 -6.406250l1.406250 0.000000q0.343750 0.000000 0.656250 0.281250q0.328125 0.265625 0.328125 0.609375l0.000000 59.031250q0.000000 3.171875 12.500000 3.171875l0.000000 3.515625z"/>
<path id="c_f47f2818876b2f1a61c47f270461e46e" d="M25.000000 2.203125q-12.250000 0.000000 -16.671875 -10.078125q-4.421875 -10.093750 -4.421875 -24.015625q0.000000 -8.687500 1.578125 -16.343750q1.593750 -7.671875 6.296875 -13.015625q4.718750 -5.359375 13.218750 -5.359375q6.593750 0.000000 10.781250 3.234375q4.203125 3.218750 6.406250 8.328125q2.203125 5.093750 3.000000 10.937500q0.812500 5.828125 0.812500 12.218750q0.000000 8.593750 -1.593750 16.093750q-1.578125 7.500000 -6.218750 12.750000q-4.640625 5.250000 -13.187500 5.250000M25.000000 -0.390625q5.562500 0.000000 8.296875 -5.703125q2.734375 -5.718750 3.375000 -12.656250q0.640625 -6.937500 0.640625 -14.750000q0.000000 -7.515625 -0.640625 -13.859375q-0.640625 -6.359375 -3.359375 -11.500000q-2.703125 -5.156250 -8.312500 -5.156250q-5.656250 0.000000 -8.390625 5.187500q-2.734375 5.171875 -3.375000 11.500000q-0.640625 6.312500 -0.640625 13.828125q0.000000 5.562500 0.265625 10.500000q0.281250 4.937500 1.453125 10.187500q1.171875 5.250000 3.781250 8.843750q2.609375 3.578125 6.906250 3.578125"/>
<path id="c_01bd98e0cf1b355b13e73042b8c9bdee" d="M9.906250 18.015625q0.000000 -0.437500 0.390625 -0.828125q3.625000 -3.468750 5.625000 -8.015625q2.000000 -4.531250 2.000000 -9.562500l0.000000 -1.218750q-1.609375 1.609375 -4.000000 1.609375q-2.296875 0.000000 -3.906250 -1.609375q-1.609375 -1.609375 -1.609375 -3.906250q0.000000 -2.343750 1.609375 -3.906250q1.609375 -1.562500 3.906250 -1.562500q3.562500 0.000000 5.078125 3.296875q1.515625 3.296875 1.515625 7.296875q0.000000 5.562500 -2.234375 10.562500q-2.218750 5.015625 -6.265625 9.015625q-0.390625 0.203125 -0.640625 0.203125q-0.484375 0.000000 -0.984375 -0.453125q-0.484375 -0.437500 -0.484375 -0.921875"/>
<path id="c_3260b495c6402fff66ed286585579e9c" d="M2.781250 18.796875q0.000000 -0.578125 0.093750 -0.781250l14.703125 -59.031250q0.437500 -1.421875 1.578125 -2.296875q1.156250 -0.875000 2.625000 -0.875000q1.265625 0.000000 2.140625 0.765625q0.890625 0.750000 0.890625 2.015625q0.000000 0.296875 -0.031250 0.468750q-0.031250 0.171875 -0.078125 0.359375l-5.906250 23.390625q-0.968750 4.156250 -0.968750 7.171875q0.000000 3.718750 1.750000 6.109375q1.765625 2.390625 5.328125 2.390625q7.265625 0.000000 12.796875 -9.078125q0.046875 -0.093750 0.062500 -0.140625q0.031250 -0.062500 0.031250 -0.156250l7.218750 -29.000000q0.343750 -1.328125 1.562500 -2.265625q1.218750 -0.953125 2.640625 -0.953125q1.171875 0.000000 2.078125 0.781250q0.906250 0.781250 0.906250 2.046875q0.000000 0.578125 -0.109375 0.781250l-7.171875 28.812500q-0.734375 2.828125 -0.734375 4.875000q0.000000 4.296875 2.937500 4.296875q3.125000 0.000000 4.703125 -3.859375q1.593750 -3.859375 2.765625 -9.328125q0.187500 -0.578125 0.828125 -0.578125l1.171875 0.000000q0.390625 0.000000 0.656250 0.312500q0.265625 0.312500 0.265625 0.656250q-1.750000 6.984375 -3.828125 11.218750q-2.078125 4.218750 -6.765625 4.218750q-3.312500 0.000000 -5.875000 -1.906250q-2.562500 -1.906250 -3.343750 -5.125000q-2.500000 3.125000 -5.843750 5.078125q-3.343750 1.953125 -7.046875 1.953125q-6.250000 0.000000 -9.828125 -2.937500l-5.078125 20.218750q-0.281250 1.421875 -1.453125 2.296875q-1.171875 0.875000 -2.640625 0.875000q-1.218750 0.000000 -2.125000 -0.765625q-0.906250 -0.750000 -0.906250 -2.015625"/>
<path id="c_8b48a7401ae680eb5f4c605f13a7b112" d="M8.406250 -5.515625q0.000000 -2.250000 1.656250 -3.859375q1.656250 -1.609375 3.859375 -1.609375q1.359375 0.000000 2.671875 0.734375q1.328125 0.734375 2.062500 2.046875q0.734375 1.312500 0.734375 2.687500q0.000000 2.187500 -1.625000 3.859375q-1.609375 1.656250 -3.843750 1.656250q-2.203125 0.000000 -3.859375 -1.656250q-1.656250 -1.671875 -1.656250 -3.859375"/>
<path id="c_f6bfecfef5ea966626c74db776cc6a54" d="M2.781250 -16.500000l0.000000 -3.515625l30.906250 -46.093750q0.343750 -0.500000 1.031250 -0.500000l1.468750 0.000000q1.125000 0.000000 1.125000 1.125000l0.000000 45.468750l9.812500 0.000000l0.000000 3.515625l-9.812500 0.000000l0.000000 9.812500q0.000000 2.046875 2.921875 2.609375q2.937500 0.562500 6.781250 0.562500l0.000000 3.515625l-27.531250 0.000000l0.000000 -3.515625q3.859375 0.000000 6.781250 -0.562500q2.937500 -0.562500 2.937500 -2.609375l0.000000 -9.812500zM6.109375 -20.015625l23.671875 0.000000l0.000000 -35.406250z"/>
<path id="c_6733a1659a14e49f8feaf83505a1ef98" d="M11.281250 -4.203125q2.734375 3.218750 9.515625 3.218750q3.812500 0.000000 7.109375 -2.578125q3.296875 -2.593750 5.109375 -6.343750q2.093750 -4.250000 2.671875 -9.062500q0.593750 -4.812500 0.593750 -11.937500q-1.703125 4.046875 -4.906250 6.640625q-3.203125 2.578125 -7.343750 2.578125q-5.812500 0.000000 -10.390625 -3.140625q-4.562500 -3.156250 -7.000000 -8.296875q-2.437500 -5.156250 -2.437500 -10.968750q0.000000 -6.000000 2.734375 -11.203125q2.734375 -5.203125 7.562500 -8.250000q4.843750 -3.062500 10.984375 -3.062500q6.062500 0.000000 10.140625 3.296875q4.078125 3.296875 6.218750 8.500000q2.156250 5.203125 3.000000 11.015625q0.859375 5.812500 0.859375 11.468750q0.000000 7.718750 -2.828125 15.750000q-2.828125 8.031250 -8.468750 13.406250q-5.640625 5.375000 -13.609375 5.375000q-5.906250 0.000000 -10.015625 -2.781250q-4.093750 -2.796875 -4.093750 -8.406250q0.000000 -2.046875 1.390625 -3.437500q1.390625 -1.390625 3.453125 -1.390625q2.000000 0.000000 3.390625 1.390625q1.390625 1.390625 1.390625 3.437500q0.000000 1.953125 -1.421875 3.375000q-1.406250 1.406250 -3.359375 1.406250zM24.421875 -24.312500q4.093750 0.000000 6.703125 -2.750000q2.609375 -2.765625 3.781250 -6.859375q1.171875 -4.109375 1.171875 -8.171875l0.000000 -1.906250l0.000000 -0.390625q0.000000 -7.515625 -2.203125 -13.421875q-2.187500 -5.906250 -8.390625 -5.906250q-3.953125 0.000000 -6.421875 1.734375q-2.453125 1.734375 -3.625000 4.609375q-1.171875 2.875000 -1.500000 6.156250q-0.312500 3.265625 -0.312500 7.125000q0.000000 5.671875 0.531250 9.671875q0.546875 4.000000 2.937500 7.062500q2.390625 3.046875 7.328125 3.046875"/>
<path id="c_75c38898ea241ebcbd0918e2320a1d61" d="M8.687500 -6.109375q2.687500 4.593750 10.796875 4.593750q3.515625 0.000000 6.687500 -1.187500q3.171875 -1.203125 5.250000 -3.593750q2.078125 -2.390625 2.078125 -5.812500q0.000000 -2.593750 -1.859375 -4.250000q-1.859375 -1.656250 -4.546875 -2.250000l-5.406250 -1.062500q-3.718750 -0.937500 -6.109375 -3.468750q-2.390625 -2.546875 -2.390625 -6.156250q0.000000 -4.437500 2.406250 -7.859375q2.421875 -3.421875 6.375000 -5.218750q3.953125 -1.812500 8.203125 -1.812500q4.546875 0.000000 8.125000 2.171875q3.593750 2.171875 3.593750 6.421875q0.000000 2.296875 -1.296875 4.062500q-1.281250 1.750000 -3.578125 1.750000q-1.328125 0.000000 -2.281250 -0.859375q-0.937500 -0.859375 -0.937500 -2.171875q0.000000 -1.171875 0.656250 -2.265625q0.656250 -1.109375 1.750000 -1.765625q1.109375 -0.656250 2.281250 -0.656250q-0.890625 -2.156250 -3.312500 -3.125000q-2.406250 -0.984375 -5.187500 -0.984375q-2.546875 0.000000 -5.093750 1.031250q-2.531250 1.031250 -4.078125 3.015625q-1.531250 1.968750 -1.531250 4.656250q0.000000 1.796875 1.265625 3.171875q1.281250 1.359375 3.140625 1.953125l5.812500 1.171875q2.781250 0.578125 5.093750 2.078125q2.328125 1.484375 3.656250 3.765625q1.343750 2.265625 1.343750 5.187500q0.000000 3.718750 -2.078125 7.328125q-2.062500 3.609375 -5.093750 5.765625q-5.328125 3.609375 -13.031250 3.609375q-5.328125 0.000000 -9.781250 -2.437500q-4.437500 -2.453125 -4.437500 -7.281250q0.000000 -2.734375 1.578125 -4.750000q1.593750 -2.031250 4.328125 -2.031250q1.625000 0.000000 2.718750 0.984375q1.093750 0.968750 1.093750 2.578125q0.000000 2.296875 -1.718750 4.000000q-1.703125 1.703125 -3.984375 1.703125z"/>
<path id="c_881ffaa3ac189934f18d018de3d82979" d="M18.703125 1.125000q-4.437500 0.000000 -7.890625 -2.125000q-3.437500 -2.125000 -5.328125 -5.734375q-1.875000 -3.625000 -1.875000 -7.968750q0.000000 -4.640625 2.093750 -9.765625q2.109375 -5.125000 5.750000 -9.375000q3.640625 -4.250000 8.218750 -6.750000q4.593750 -2.515625 9.437500 -2.515625l25.187500 0.000000q1.031250 0.000000 1.750000 0.687500q0.734375 0.671875 0.734375 1.843750q0.000000 1.468750 -1.046875 2.562500q-1.046875 1.093750 -2.515625 1.093750l-12.203125 0.000000q2.875000 4.296875 2.875000 10.406250q0.000000 5.031250 -1.953125 9.921875q-1.953125 4.875000 -5.421875 8.906250q-3.453125 4.031250 -8.078125 6.421875q-4.609375 2.390625 -9.734375 2.390625M18.796875 -1.515625q5.468750 0.000000 9.687500 -4.265625q4.234375 -4.281250 6.468750 -10.453125q2.250000 -6.171875 2.250000 -11.453125q0.000000 -4.296875 -2.375000 -6.765625q-2.359375 -2.468750 -6.609375 -2.468750q-5.812500 0.000000 -9.890625 3.906250q-4.062500 3.906250 -6.093750 9.828125q-2.031250 5.906250 -2.031250 11.375000q0.000000 4.296875 2.265625 7.296875q2.281250 3.000000 6.328125 3.000000"/>
<path id="c_e67b50107ce49b4ffc818ce612cf3095" d="M25.000000 2.203125q-6.203125 0.000000 -10.359375 -3.296875q-4.140625 -3.296875 -6.421875 -8.546875q-2.265625 -5.250000 -3.140625 -11.015625q-0.875000 -5.765625 -0.875000 -11.671875q0.000000 -7.906250 3.078125 -15.859375q3.078125 -7.968750 9.046875 -13.187500q5.984375 -5.234375 14.187500 -5.234375q3.421875 0.000000 6.375000 1.296875q2.953125 1.296875 4.640625 3.812500q1.687500 2.515625 1.687500 6.078125q0.000000 2.046875 -1.390625 3.437500q-1.390625 1.390625 -3.453125 1.390625q-1.953125 0.000000 -3.375000 -1.406250q-1.406250 -1.421875 -1.406250 -3.421875q0.000000 -1.953125 1.406250 -3.359375q1.421875 -1.421875 3.375000 -1.421875l0.546875 0.000000q-1.281250 -1.812500 -3.593750 -2.656250q-2.312500 -0.859375 -4.812500 -0.859375q-3.031250 0.000000 -5.593750 1.328125q-2.562500 1.312500 -4.609375 3.562500q-2.046875 2.234375 -3.421875 4.953125q-1.359375 2.703125 -2.125000 6.171875q-0.750000 3.468750 -0.953125 6.500000q-0.187500 3.015625 -0.187500 7.609375q1.750000 -4.109375 4.968750 -6.718750q3.234375 -2.609375 7.281250 -2.609375q4.453125 0.000000 8.109375 1.812500q3.656250 1.796875 6.296875 5.000000q2.640625 3.203125 4.031250 7.312500q1.390625 4.093750 1.390625 8.281250q0.000000 5.859375 -2.609375 11.171875q-2.609375 5.296875 -7.359375 8.421875q-4.734375 3.125000 -10.734375 3.125000M25.000000 -0.984375q3.859375 0.000000 6.203125 -1.750000q2.343750 -1.765625 3.437500 -4.656250q1.109375 -2.906250 1.375000 -5.859375q0.265625 -2.968750 0.265625 -7.265625q0.000000 -5.656250 -0.546875 -9.656250q-0.531250 -4.015625 -2.921875 -7.062500q-2.390625 -3.046875 -7.328125 -3.046875q-4.046875 0.000000 -6.656250 2.734375q-2.609375 2.734375 -3.812500 6.906250q-1.203125 4.171875 -1.203125 8.031250q0.000000 1.312500 0.109375 2.000000q0.000000 0.156250 -0.031250 0.250000q-0.015625 0.093750 -0.078125 0.234375q0.000000 4.296875 0.875000 8.703125q0.890625 4.390625 3.375000 7.421875q2.500000 3.015625 6.937500 3.015625"/>
<path id="c_7d09e94cce4bdf71f2297f5bbc354b76" d="M8.687500 -11.375000q1.031250 2.921875 3.156250 5.328125q2.125000 2.390625 5.031250 3.734375q2.906250 1.328125 6.031250 1.328125q7.218750 0.000000 9.953125 -5.609375q2.734375 -5.609375 2.734375 -13.625000q0.000000 -3.468750 -0.125000 -5.828125q-0.109375 -2.375000 -0.656250 -4.562500q-0.921875 -3.515625 -3.250000 -6.156250q-2.312500 -2.640625 -5.687500 -2.640625q-3.359375 0.000000 -5.781250 1.031250q-2.421875 1.015625 -3.937500 2.390625q-1.500000 1.359375 -2.671875 2.875000q-1.171875 1.515625 -1.468750 1.609375l-1.125000 0.000000q-0.250000 0.000000 -0.625000 -0.312500q-0.359375 -0.312500 -0.359375 -0.609375l0.000000 -33.406250q0.000000 -0.234375 0.312500 -0.500000q0.328125 -0.281250 0.671875 -0.281250l0.296875 0.000000q6.734375 3.234375 14.296875 3.234375q7.421875 0.000000 14.312500 -3.234375l0.296875 0.000000q0.343750 0.000000 0.625000 0.250000q0.296875 0.250000 0.296875 0.531250l0.000000 0.937500q0.000000 0.484375 -0.187500 0.484375q-3.421875 4.546875 -8.578125 7.093750q-5.156250 2.531250 -10.671875 2.531250q-4.000000 0.000000 -8.203125 -1.125000l0.000000 18.890625q3.328125 -2.687500 5.937500 -3.828125q2.609375 -1.156250 6.671875 -1.156250q5.515625 0.000000 9.875000 3.187500q4.375000 3.171875 6.718750 8.281250q2.343750 5.093750 2.343750 10.406250q0.000000 6.015625 -2.953125 11.140625q-2.953125 5.125000 -8.031250 8.156250q-5.078125 3.031250 -11.031250 3.031250q-4.937500 0.000000 -9.062500 -2.531250q-4.125000 -2.546875 -6.500000 -6.843750q-2.359375 -4.296875 -2.359375 -9.140625q0.000000 -2.250000 1.453125 -3.656250q1.468750 -1.421875 3.671875 -1.421875q2.203125 0.000000 3.687500 1.453125q1.484375 1.437500 1.484375 3.625000q0.000000 2.156250 -1.484375 3.640625q-1.484375 1.484375 -3.687500 1.484375q-0.343750 0.000000 -0.781250 -0.062500q-0.437500 -0.078125 -0.640625 -0.125000"/>
</defs>
<g id="mathtext1">
<g style="fill: #000000" transform="translate(85.700000,38.200000)">
<use xlink:href="#c_6ec1680e90fa8ca45a16adfb36f15637" transform="translate(0.000000,-4.859375)scale(0.144000)"/>
<use xlink:href="#c_d0e9685c400095fadecacf1c50b32774" transform="translate(10.792969,-4.859375)scale(0.144000)"/>
<use xlink:href="#c_a764f622c6f118158a993ace88ddaf97" transform="translate(17.180206,-4.859375)scale(0.144000)"/>
<use xlink:href="#c_47bb69df3dc90fb95dede367e92e714c" transform="translate(21.164322,-4.859375)scale(0.144000)"/>
<use xlink:href="#c_3f72f0e1b2c8acfc5e912f2e891b93aa" transform="translate(25.148438,-4.859375)scale(0.144000)"/>
<use xlink:href="#c_7e3c12e02a7786702e19d1dc73f5dbb6" transform="translate(32.343750,-4.859375)scale(0.144000)"/>
<use xlink:href="#c_47bb69df3dc90fb95dede367e92e714c" transform="translate(39.925522,-4.859375)scale(0.144000)"/>
<use xlink:href="#c_d0e9685c400095fadecacf1c50b32774" transform="translate(43.909637,-4.859375)scale(0.144000)"/>
<use xlink:href="#c_d0486140fb7352cc4470392a52148673" transform="translate(50.296875,-4.859375)scale(0.144000)"/>
<use xlink:href="#c_d0e9685c400095fadecacf1c50b32774" transform="translate(60.689316,-4.859375)scale(0.144000)"/>
<use xlink:href="#c_65956250002d0f90c06d8ccc2c0965b8" transform="translate(67.076553,-4.859375)scale(0.144000)"/>
<use xlink:href="#c_290de001110bbfe9b991538e8cdd47a8" transform="translate(76.301161,-4.859375)scale(0.144000)"/>
<use xlink:href="#c_4fabef8985c318b4fd571dae195dd082" transform="translate(81.493864,-4.859375)scale(0.144000)"/>
<use xlink:href="#c_602ee8198ab7fa3b459c8e69c5b85b3d" transform="translate(93.481367,-4.859375)scale(0.144000)"/>
<use xlink:href="#c_3877d6afdbe473a50acdfd061b4e65d6" transform="translate(100.676680,-4.859375)scale(0.144000)"/>
<use xlink:href="#c_d0e9685c400095fadecacf1c50b32774" transform="translate(107.871992,-4.859375)scale(0.144000)"/>
<use xlink:href="#c_92fca36f2f37f23c1c8c53e69327fcb5" transform="translate(117.855481,-4.859375)scale(0.144000)"/>
<use xlink:href="#c_e0e62bc5d2523c895b9035c926fafa26" transform="translate(129.034909,-4.859375)scale(0.144000)"/>
<use xlink:href="#c_d0e9685c400095fadecacf1c50b32774" transform="translate(137.024228,-4.859375)scale(0.144000)"/>
<use xlink:href="#c_65956250002d0f90c06d8ccc2c0965b8" transform="translate(143.411465,-4.859375)scale(0.144000)"/>
<use xlink:href="#c_bd192a9e73fe8ca4e6a99ee1a497910b" transform="translate(149.039822,-4.859375)scale(0.144000)"/>
<use xlink:href="#c_6a31cc82e296cf321b8f9d3243a66d3e" transform="translate(160.217845,-4.859375)scale(0.144000)"/>
<use xlink:href="#c_47bb69df3dc90fb95dede367e92e714c" transform="translate(170.610286,-4.859375)scale(0.144000)"/>
<use xlink:href="#c_4fabef8985c318b4fd571dae195dd082" transform="translate(174.594402,-4.859375)scale(0.144000)"/>
<use xlink:href="#c_d0e9685c400095fadecacf1c50b32774" transform="translate(186.581905,-4.859375)scale(0.144000)"/>
<use xlink:href="#c_41fe0072812962a58aa3455d463195d3" transform="translate(195.366643,-4.859375)scale(0.144000)"/>
<use xlink:href="#c_4e79783b4799b416f9678acefc53a48a" transform="translate(203.132455,-4.859375)scale(0.144000)"/>
<use xlink:href="#c_7bbc93c01755cdeb977d08bdfb9ce616" transform="translate(214.295020,-4.859375)scale(0.144000)"/>
<use xlink:href="#c_1a459ac34855d27ec37ccb0e66298d36" transform="translate(226.384311,-4.859375)scale(0.144000)"/>
<use xlink:href="#c_f47f2818876b2f1a61c47f270461e46e" transform="translate(233.579623,-4.859375)scale(0.144000)"/>
<use xlink:href="#c_f47f2818876b2f1a61c47f270461e46e" transform="translate(240.774936,-4.859375)scale(0.144000)"/>
<use xlink:href="#c_f47f2818876b2f1a61c47f270461e46e" transform="translate(247.970248,-4.859375)scale(0.144000)"/>
<use xlink:href="#c_01bd98e0cf1b355b13e73042b8c9bdee" transform="translate(255.165561,-4.859375)scale(0.144000)"/>
<use xlink:href="#c_3260b495c6402fff66ed286585579e9c" transform="translate(263.216914,-4.859375)scale(0.144000)"/>
<use xlink:href="#c_7bbc93c01755cdeb977d08bdfb9ce616" transform="translate(274.407585,-4.859375)scale(0.144000)"/>
<use xlink:href="#c_f47f2818876b2f1a61c47f270461e46e" transform="translate(286.496877,-4.859375)scale(0.144000)"/>
<use xlink:href="#c_8b48a7401ae680eb5f4c605f13a7b112" transform="translate(293.692189,-4.859375)scale(0.144000)"/>
<use xlink:href="#c_f47f2818876b2f1a61c47f270461e46e" transform="translate(297.797105,-4.859375)scale(0.144000)"/>
<use xlink:href="#c_1a459ac34855d27ec37ccb0e66298d36" transform="translate(304.992418,-4.859375)scale(0.144000)"/>
<use xlink:href="#c_f6bfecfef5ea966626c74db776cc6a54" transform="translate(312.187730,-4.859375)scale(0.144000)"/>
<use xlink:href="#c_6733a1659a14e49f8feaf83505a1ef98" transform="translate(319.383043,-4.859375)scale(0.144000)"/>
<use xlink:href="#c_6733a1659a14e49f8feaf83505a1ef98" transform="translate(326.578355,-4.859375)scale(0.144000)"/>
<use xlink:href="#c_75c38898ea241ebcbd0918e2320a1d61" transform="translate(333.773668,-4.859375)scale(0.144000)"/>
<use xlink:href="#c_01bd98e0cf1b355b13e73042b8c9bdee" transform="translate(340.505220,-4.859375)scale(0.144000)"/>
<use xlink:href="#c_881ffaa3ac189934f18d018de3d82979" transform="translate(348.556573,-4.859375)scale(0.144000)"/>
<use xlink:href="#c_7bbc93c01755cdeb977d08bdfb9ce616" transform="translate(359.297537,-4.859375)scale(0.144000)"/>
<use xlink:href="#c_f47f2818876b2f1a61c47f270461e46e" transform="translate(371.386829,-4.859375)scale(0.144000)"/>
<use xlink:href="#c_8b48a7401ae680eb5f4c605f13a7b112" transform="translate(378.582141,-4.859375)scale(0.144000)"/>
<use xlink:href="#c_f47f2818876b2f1a61c47f270461e46e" transform="translate(382.687057,-4.859375)scale(0.144000)"/>
<use xlink:href="#c_f47f2818876b2f1a61c47f270461e46e" transform="translate(389.882370,-4.859375)scale(0.144000)"/>
<use xlink:href="#c_e67b50107ce49b4ffc818ce612cf3095" transform="translate(397.077682,-4.859375)scale(0.144000)"/>
<use xlink:href="#c_f47f2818876b2f1a61c47f270461e46e" transform="translate(404.272995,-4.859375)scale(0.144000)"/>
<use xlink:href="#c_7d09e94cce4bdf71f2297f5bbc354b76" transform="translate(411.468307,-4.859375)scale(0.144000)"/>
</g>
</g>
</g>
</g>
</g>
</svg>
